<?xml version="1.0" encoding="UTF-8"?>
<svg xmlns="http://www.w3.org/2000/svg" viewBox="0 0 1728.19 1868">
  <defs>
    <style>
      .cls-1 {
        opacity: .45;
      }

      .cls-2 {
        fill: #22b573;
      }

      .cls-2, .cls-3, .cls-4 {
        stroke-width: 0px;
      }

      .cls-3 {
        fill: #006837;
      }

      .cls-4 {
        fill: #009245;
      }
    </style>
  </defs>
  <g id="Layer_2" data-name="Layer 2">
    <g>
      <circle class="cls-3" cx="133.2" cy="138.66" r="57.42"/>
      <circle class="cls-3" cx="190.62" cy="269.57" r="57.42"/>
      <circle class="cls-3" cx="57.42" cy="269.57" r="57.42"/>
      <circle class="cls-3" cx="114.83" cy="384.4" r="57.42"/>
      <circle class="cls-3" cx="279.04" cy="154.74" r="57.42"/>
      <path class="cls-3" d="M372.76,273.34l3.27-7c-9.07-19.78-29.02-33.52-52.2-33.52-31.71,0-57.42,25.71-57.42,57.42s25.71,57.42,57.42,57.42,57.42-25.71,57.42-57.42c0-.28-.02-.55-.02-.83h-8.46v-16.07Z"/>
      <circle class="cls-3" cx="248.03" cy="405.07" r="57.42"/>
      <circle class="cls-3" cx="153.87" cy="519.9" r="57.42"/>
      <circle class="cls-3" cx="211.29" cy="650.8" r="57.42"/>
      <circle class="cls-3" cx="78.08" cy="650.8" r="57.42"/>
      <path class="cls-3" d="M192.91,765.63c0-31.71-25.71-57.42-57.42-57.42s-57.42,25.71-57.42,57.42,25.71,57.42,57.42,57.42c16.24,0,30.9-6.76,41.34-17.6,4.69-10.07,9.71-19.8,15.07-29.19.65-3.45,1-7,1-10.63Z"/>
      <circle class="cls-3" cx="299.71" cy="535.97" r="57.42"/>
      <path class="cls-3" d="M344.49,614.06c-30.69,0-55.75,24.08-57.33,54.37,25.34-18.77,53.72-34.5,85.12-47.2-8.24-4.56-17.71-7.17-27.79-7.17Z"/>
      <path class="cls-3" d="M412.24,290.24c0,31.71,25.71,57.42,57.42,57.42s57.42-25.71,57.42-57.42c0-.28-.02-.55-.02-.83h-114.79c0,.28-.02.55-.02.83Z"/>
      <circle class="cls-3" cx="527.07" cy="421.14" r="57.42"/>
      <circle class="cls-3" cx="393.87" cy="421.14" r="57.42"/>
      <circle class="cls-3" cx="451.28" cy="535.97" r="57.42"/>
      <path class="cls-3" d="M558.07,306.31c0,31.71,25.71,57.42,57.42,57.42s57.42-25.71,57.42-57.42c0-5.88-.89-11.56-2.53-16.91h-109.76c-1.64,5.35-2.53,11.02-2.53,16.91Z"/>
      <circle class="cls-3" cx="660.27" cy="441.81" r="57.42"/>
      <path class="cls-3" d="M636.34,581.31c3.56-7.47,5.56-15.84,5.56-24.67,0-31.71-25.71-57.42-57.42-57.42s-57.42,25.71-57.42,57.42c0,10.12,2.63,19.61,7.22,27.87,23.95-2.12,48.95-3.2,75.02-3.2h27.03Z"/>
      <path class="cls-3" d="M533.96,925.25c0-12.96-4.3-24.91-11.54-34.52-31.1,17.85-52.31,47.55-63.64,89.12,5.6,1.82,11.56,2.82,17.77,2.82,31.71,0,57.42-25.71,57.42-57.42Z"/>
      <path class="cls-3" d="M685.54,888.5c16.4,0,31.19-6.89,41.65-17.92h-83.3c10.46,11.03,25.25,17.92,41.65,17.92Z"/>
      <circle class="cls-3" cx="793.48" cy="454.44" r="57.42"/>
      <path class="cls-3" d="M850.89,527.93c-30.35,0-55.18,23.55-57.26,53.37h114.52c-2.08-29.82-26.91-53.37-57.26-53.37Z"/>
      <path class="cls-3" d="M717.69,527.93c-30.35,0-55.18,23.55-57.26,53.37h114.52c-2.08-29.82-26.91-53.37-57.26-53.37Z"/>
      <circle class="cls-3" cx="939.31" cy="470.52" r="57.42"/>
      <path class="cls-3" d="M1040.89,597.61c-4.07-27.72-27.94-49.01-56.8-49.01-22.86,0-42.6,13.36-51.84,32.7h13.83c32.32,0,63.93,5.44,94.8,16.31Z"/>
      <path class="cls-3" d="M818.74,913.76c26.8,0,49.3-18.36,55.63-43.18h-111.27c6.33,24.82,28.84,43.18,55.63,43.18Z"/>
      <path class="cls-3" d="M876.15,929.84c-31.71,0-57.42,25.71-57.42,57.42,0,11.42,3.35,22.05,9.1,31l89.81-70.66c-10.45-10.93-25.17-17.75-41.49-17.75Z"/>
      <circle class="cls-3" cx="742.95" cy="987.25" r="57.42"/>
      <path class="cls-3" d="M746.46,1082.28l47.31-37.22c-21.85,2.5-39.97,17.25-47.31,37.22Z"/>
      <path class="cls-3" d="M946.13,870.58h-38.92c-.02.61-.05,1.23-.05,1.84,0,24.72,15.63,45.79,37.54,53.88l60.5-47.6c-17.44-5.41-37.13-8.12-59.07-8.12Z"/>
      <path class="cls-3" d="M990.98,1122.75c0-4.33-.49-8.54-1.4-12.6l-81.44,64.08c7.67,3.79,16.29,5.93,25.42,5.93,31.71,0,57.42-25.71,57.42-57.42Z"/>
      <path class="cls-3" d="M1106.46,567.48c-18.89,6.13-33.48,21.78-38.12,41.3,12.83,5.94,25.54,12.85,38.12,20.72v-62.02Z"/>
      <path class="cls-3" d="M1106.18,1047.75c-.34-9.64-1.01-18.9-2.01-27.76l-12.53,9.86c3.61,6.91,8.57,12.99,14.54,17.9Z"/>
      <path class="cls-3" d="M1009.36,1134.24c0,31.71,25.71,57.42,57.42,57.42,15.4,0,29.38-6.08,39.69-15.95v-82.93c-10.31-9.87-24.29-15.95-39.69-15.95-31.71,0-57.42,25.71-57.42,57.42Z"/>
      <path class="cls-3" d="M1066.77,1249.07c0,25.34,16.42,46.83,39.19,54.44.32-6.67.5-13.53.5-20.59v-88.46c-23.03,7.47-39.69,29.09-39.69,54.61Z"/>
      <path class="cls-3" d="M492.62,1110.12c31.71,0,57.42-25.71,57.42-57.42s-25.71-57.42-57.42-57.42c-15.7,0-29.93,6.31-40.29,16.53-2.2,15.77-3.31,32.86-3.31,51.27v26.96c10.53,12.29,26.15,20.08,43.6,20.08Z"/>
      <path class="cls-3" d="M550.04,1126.2c-31.71,0-57.42,25.71-57.42,57.42,0,30.01,23.03,54.63,52.38,57.18l61.82-48.64c.42-2.79.64-5.64.64-8.54,0-31.71-25.71-57.42-57.42-57.42Z"/>
      <path class="cls-3" d="M474.25,1183.61c0-19.78-10-37.22-25.23-47.55v95.1c15.22-10.33,25.23-27.77,25.23-47.55Z"/>
      <path class="cls-3" d="M474.25,1241.03c-9.05,0-17.61,2.1-25.23,5.83v36.06c0,11.3.42,22.1,1.25,32.41l68.11-53.59c-10.53-12.65-26.39-20.7-44.14-20.7Z"/>
      <circle class="cls-3" cx="638.45" cy="1068.78" r="57.42"/>
      <path class="cls-3" d="M641.56,1164.82l13.18-10.37c-4.89,2.8-9.33,6.3-13.18,10.37Z"/>
      <path class="cls-3" d="M106.79,896.54c0,21.55,11.88,40.32,29.44,50.14,5.77-38.95,14.64-74.8,26.63-107.52-31.09.71-56.07,26.12-56.07,57.38Z"/>
      <path class="cls-3" d="M131.26,989.24c-10.51-11.78-25.81-19.21-42.84-19.21-31.71,0-57.42,25.71-57.42,57.42s25.71,57.42,57.42,57.42c15.44,0,29.45-6.11,39.77-16.03v-5.83c0-25.61,1.03-50.2,3.07-73.77Z"/>
      <path class="cls-3" d="M88.42,1142.27c0,25.55,16.7,47.2,39.77,54.64v-109.28c-23.08,7.45-39.77,29.09-39.77,54.64Z"/>
      <path class="cls-3" d="M818.74,1297.29c31.71,0,57.42-25.71,57.42-57.42,0-12.08-3.74-23.28-10.11-32.52l-90.05,70.85c10.51,11.71,25.76,19.09,42.74,19.09Z"/>
      <circle class="cls-3" cx="876.15" cy="1370.79" r="57.42"/>
      <path class="cls-3" d="M742.95,1428.2c31.71,0,57.42-25.71,57.42-57.42s-25.71-57.42-57.42-57.42c-4.75,0-9.36.59-13.77,1.67l-37.16,29.24c-4.14,7.93-6.49,16.94-6.49,26.5,0,31.71,25.71,57.42,57.42,57.42Z"/>
      <path class="cls-3" d="M800.37,1428.2c-28.23,0-51.68,20.38-56.49,47.22h112.99c-4.81-26.84-28.27-47.22-56.49-47.22Z"/>
      <circle class="cls-3" cx="964.57" cy="1255.96" r="57.42"/>
      <circle class="cls-3" cx="1009.36" cy="1391.46" r="57.42"/>
      <path class="cls-3" d="M980.3,1472.96c-10.41-14.58-27.46-24.09-46.74-24.09-20.35,0-38.21,10.59-48.4,26.55h60.96c12.08,0,23.47-.83,34.18-2.47Z"/>
      <path class="cls-3" d="M1459.49,836.83c31.71,0,57.42-25.71,57.42-57.42s-25.71-57.42-57.42-57.42c-11.94,0-23.02,3.64-32.2,9.88v95.08c9.18,6.23,20.27,9.88,32.2,9.88Z"/>
      <circle class="cls-3" cx="1516.9" cy="910.32" r="57.42"/>
      <path class="cls-3" d="M1441.12,910.32c0-14.27-5.22-27.31-13.83-37.35v74.7c8.61-10.04,13.83-23.08,13.83-37.35Z"/>
      <path class="cls-3" d="M1441.12,1082.56c31.71,0,57.42-25.71,57.42-57.42s-25.71-57.42-57.42-57.42c-4.77,0-9.4.59-13.83,1.69v111.46c4.43,1.1,9.06,1.69,13.83,1.69Z"/>
      <circle class="cls-3" cx="1605.32" cy="795.49" r="57.42"/>
      <circle class="cls-3" cx="1650.11" cy="930.99" r="57.42"/>
      <circle class="cls-3" cx="1574.32" cy="1045.82" r="57.42"/>
      <path class="cls-3" d="M1441.12,444.11c31.71,0,57.42-25.71,57.42-57.42s-25.71-57.42-57.42-57.42c-9.72,0-18.87,2.42-26.9,6.69,6.5,32.98,10.57,68.39,12.21,106.24,4.69,1.24,9.61,1.9,14.69,1.9Z"/>
      <circle class="cls-3" cx="1498.53" cy="517.6" r="57.42"/>
      <path class="cls-3" d="M1480.16,632.43c0-30.18-23.29-54.9-52.87-57.22v114.44c29.58-2.32,52.87-27.04,52.87-57.22Z"/>
      <circle class="cls-3" cx="1586.95" cy="402.77" r="57.42"/>
      <circle class="cls-3" cx="1631.73" cy="538.27" r="57.42"/>
      <circle class="cls-3" cx="1555.95" cy="653.1" r="57.42"/>
      <path class="cls-3" d="M1033.88,309.9c-1.28-.08-2.56-.14-3.86-.14-31.71,0-57.42,25.71-57.42,57.42s25.71,57.42,57.42,57.42,55.09-23.47,57.25-53.21c-12.09-27.32-29.88-47.81-53.39-61.47Z"/>
      <path class="cls-3" d="M1102.67,426.64c-4.85-1.33-9.95-2.06-15.23-2.06-31.71,0-57.42,25.71-57.42,57.42s25.71,57.42,57.42,57.42c6.67,0,13.06-1.15,19.02-3.24v-55.17c0-19.63-1.27-37.75-3.79-54.36Z"/>
      <path class="cls-3" d="M701.61,318.94c0,31.71,25.71,57.42,57.42,57.42s57.42-25.71,57.42-57.42c0-10.8-2.99-20.91-8.18-29.54h-98.47c-5.19,8.63-8.18,18.73-8.18,29.54Z"/>
      <path class="cls-3" d="M834.81,339.61c0,31.71,25.71,57.42,57.42,57.42s57.42-25.71,57.42-57.42c0-21.6-11.93-40.41-29.56-50.21h-55.7c-17.63,9.8-29.56,28.61-29.56,50.21Z"/>
      <path class="cls-3" d="M540.17,1463.77c2.79,1.09,5.65,2.1,8.56,3.04.75-3.48,1.18-7.09,1.27-10.77l-9.83,7.74Z"/>
      <path class="cls-3" d="M474.25,1757.76c4.96,0,9.77-.63,14.36-1.81-16.85-2.62-33.1-5.84-48.77-9.64,9.59,7.19,21.5,11.45,34.41,11.45Z"/>
      <path class="cls-3" d="M638.45,1413.27c-31.71,0-57.42,25.71-57.42,57.42,0,1.04.03,2.07.09,3.09,8.95,1.09,18.36,1.64,28.23,1.64h86.31c.13-1.56.21-3.14.21-4.73,0-31.71-25.71-57.42-57.42-57.42Z"/>
      <path class="cls-3" d="M569.17,1763.8c10.16,9.1,23.57,14.64,38.28,14.64s27.22-5.18,37.24-13.74h-35.38c-13.68,0-27.05-.32-40.14-.9Z"/>
      <path class="cls-3" d="M128.19,1235.37c-13.05,10.52-21.4,26.63-21.4,44.7s8.78,34.98,22.39,45.48c-.66-13.86-.99-28.04-.99-42.55v-47.63Z"/>
      <path class="cls-3" d="M88.42,1353.56c-31.71,0-57.42,25.71-57.42,57.42s25.71,57.42,57.42,57.42c24.35,0,45.14-15.16,53.49-36.55-3.7-18.23-6.63-37.21-8.83-56.93-10.53-13.01-26.62-21.34-44.66-21.34Z"/>
      <path class="cls-3" d="M145.83,1468.39c-31.71,0-57.42,25.71-57.42,57.42s25.71,57.42,57.42,57.42c17.04,0,32.34-7.43,42.86-19.22-15.75-28.72-28.44-60.51-38.04-95.39-1.59-.13-3.2-.22-4.82-.22Z"/>
      <circle class="cls-3" cx="164.21" cy="1659.01" r="57.42"/>
      <circle class="cls-3" cx="221.62" cy="1789.92" r="57.42"/>
      <circle class="cls-3" cx="88.42" cy="1789.92" r="57.42"/>
      <path class="cls-3" d="M252.63,1675.09c0,31.71,25.71,57.42,57.42,57.42,15.98,0,30.43-6.53,40.84-17.07-35.47-16.69-66.71-37.6-93.71-62.77-2.93,6.89-4.55,14.47-4.55,22.42Z"/>
      <circle class="cls-3" cx="354.82" cy="1810.58" r="57.42"/>
      <path class="cls-3" d="M1472.12,1237.58c31.71,0,57.42-25.71,57.42-57.42s-25.71-57.42-57.42-57.42c-18.14,0-34.31,8.42-44.83,21.57v71.7c10.52,13.14,26.69,21.57,44.83,21.57Z"/>
      <circle class="cls-3" cx="1529.54" cy="1311.07" r="57.42"/>
      <path class="cls-3" d="M1453.75,1311.07c0-20.31-10.55-38.14-26.46-48.34v96.69c15.91-10.21,26.46-28.04,26.46-48.34Z"/>
      <path class="cls-3" d="M1453.75,1368.49c-9.55,0-18.54,2.34-26.46,6.46v101.9c7.92,4.12,16.91,6.46,26.46,6.46,31.71,0,57.42-25.71,57.42-57.42s-25.71-57.42-57.42-57.42Z"/>
      <circle class="cls-3" cx="1617.95" cy="1196.24" r="57.42"/>
      <circle class="cls-3" cx="1662.74" cy="1331.74" r="57.42"/>
      <circle class="cls-3" cx="1586.95" cy="1446.57" r="57.42"/>
      <circle class="cls-3" cx="607.45" cy="941.32" r="57.42"/>
      <path class="cls-3" d="M1396.33,1425.9c0-22.16,12.57-41.38,30.96-50.95v-15.54c-8.93,5.73-19.55,9.07-30.96,9.07-31.71,0-57.42-25.71-57.42-57.42s25.71-57.42,57.42-57.42c11.4,0,22.02,3.34,30.96,9.07v-46.71c-7.87-9.83-12.58-22.28-12.58-35.85s4.72-26.02,12.58-35.85v-63.44c-25.03-6.19-43.59-28.79-43.59-55.73s18.56-49.54,43.59-55.73v-21.75c-10.53,12.28-26.14,20.07-43.59,20.07-31.71,0-57.42-25.71-57.42-57.42s25.71-57.42,57.42-57.42c17.44,0,33.06,7.79,43.59,20.07v-46.02c-15.22-10.33-25.21-27.76-25.21-47.54s10-37.21,25.21-47.54v-42.22c-1.5.12-3.01.2-4.54.2-31.71,0-57.42-25.71-57.42-57.42s25.71-57.42,57.42-57.42c1.53,0,3.04.08,4.54.2v-93.87c0-13.33-.3-26.36-.86-39.13-24.59-6.49-42.73-28.88-42.73-55.51,0-21.99,12.37-41.08,30.52-50.73C1370.11,112.11,1214.11.13,946.17.13h-445.82l-124.32,266.21c3.23,7.04,5.07,14.84,5.19,23.06h31.05c.45-31.32,25.96-56.58,57.39-56.58s56.95,25.26,57.39,56.58h33.56c7.22-23.46,29.06-40.51,54.88-40.51s47.66,17.05,54.88,40.51h39.42c10.04-16.7,28.33-27.88,49.24-27.88s39.2,11.18,49.24,27.88h56.11c8.25-4.59,17.74-7.21,27.85-7.21s19.6,2.62,27.85,7.21h26.17c34.92,0,64.13,6.83,87.63,20.49,29.91,1.99,53.56,26.86,53.56,57.27,0,1.41-.07,2.81-.17,4.2,7.11,16.06,12.24,34.49,15.4,55.27,24.32,6.67,42.19,28.92,42.19,55.36,0,25.04-16.04,46.33-38.4,54.18v31.3c5.58-1.81,11.54-2.8,17.73-2.8,31.71,0,57.42,25.71,57.42,57.42s-25.71,57.42-57.42,57.42-57.42-25.71-57.42-57.42c0-4.58.55-9.04,1.57-13.31-9.09-4.21-18.24-7.93-27.45-11.17.4,2.74.62,5.55.62,8.41,0,31.71-25.71,57.42-57.42,57.42s-57.42-25.71-57.42-57.42c0-8.85,2.01-17.23,5.58-24.71h-24.11c.09,1.34.16,2.68.16,4.04,0,31.71-25.71,57.42-57.42,57.42s-57.42-25.71-57.42-57.42c0-1.36.06-2.7.16-4.04h-18.69c.09,1.34.16,2.68.16,4.04,0,31.71-25.71,57.42-57.42,57.42s-57.42-25.71-57.42-57.42c0-1.36.06-2.7.16-4.04h-24.09c-9.23,19.36-28.98,32.75-51.86,32.75-21.59,0-40.39-11.93-50.2-29.55-60.84,5.39-114.84,17.64-162.01,36.72,17.66,9.79,29.63,28.62,29.63,50.24,0,31.71-25.71,57.42-57.42,57.42s-57.42-25.71-57.42-57.42c0-1.02.03-2.03.08-3.04-38.88,28.8-70.63,64.75-95.24,107.83-2.1,11.22-7.47,21.29-15.07,29.19-5.05,10.85-9.71,22.08-13.98,33.71.45-.01.89-.03,1.34-.03,31.71,0,57.42,25.71,57.42,57.42s-25.71,57.42-57.42,57.42c-10.16,0-19.69-2.65-27.97-7.28-2.04,13.8-3.71,27.98-4.97,42.56,9.06,10.15,14.57,23.53,14.57,38.21,0,16.27-6.77,30.94-17.64,41.39v18.8c5.56-1.79,11.49-2.77,17.64-2.77,31.71,0,57.42,25.71,57.42,57.42s-25.71,57.42-57.42,57.42c-6.16,0-12.08-.98-17.64-2.77v38.45c9.85-7.95,22.37-12.71,36.02-12.71,31.71,0,57.42,25.71,57.42,57.42s-25.71,57.42-57.42,57.42c-13.19,0-25.33-4.46-35.02-11.93.8,16.95,2.11,33.39,3.89,49.35,7.97,9.86,12.76,22.4,12.76,36.07,0,7.36-1.4,14.39-3.93,20.86,2.56,12.62,5.47,24.87,8.75,36.77,29.45,2.45,52.59,27.11,52.59,57.2,0,14.67-5.51,28.04-14.56,38.19,18.56,33.83,41.38,63.39,68.48,88.66,8.73-20.57,29.12-34.99,52.87-34.99,31.71,0,57.42,25.71,57.42,57.42,0,15.73-6.33,29.98-16.58,40.35,27.17,12.78,56.82,23.08,88.96,30.88-13.97-10.47-23.01-27.16-23.01-45.97,0-31.71,25.71-57.42,57.42-57.42s57.42,25.71,57.42,57.42c0,26.75-18.29,49.23-43.06,55.6,25.5,3.97,52.35,6.59,80.56,7.84-11.74-10.51-19.13-25.78-19.13-42.78,0-31.71,25.71-57.42,57.42-57.42s57.42,25.71,57.42,57.42c0,17.49-7.83,33.15-20.17,43.68h301.39c66.28,0,119.74-16.07,160.37-48.2v111.31h16.03l304.8-143.49v-207.47c-18.39-9.57-30.96-28.79-30.96-50.95ZM1358.44,1405.24c0,31.71-25.71,57.42-57.42,57.42s-57.42-25.71-57.42-57.42,25.71-57.42,57.42-57.42,57.42,25.71,57.42,57.42ZM1199.97,1191.65c-31.71,0-57.42-25.71-57.42-57.42s25.71-57.42,57.42-57.42,57.42,25.71,57.42,57.42-25.71,57.42-57.42,57.42ZM1314.8,1269.74c0,31.71-25.71,57.42-57.42,57.42s-57.42-25.71-57.42-57.42,25.71-57.42,57.42-57.42,57.42,25.71,57.42,57.42ZM1212.6,1389.16c0,31.71-25.71,57.42-57.42,57.42s-57.42-25.71-57.42-57.42,25.71-57.42,57.42-57.42,57.42,25.71,57.42,57.42ZM1212.6,1462.65c31.71,0,57.42,25.71,57.42,57.42s-25.71,57.42-57.42,57.42-57.42-25.71-57.42-57.42,25.71-57.42,57.42-57.42ZM1390.59,1154.91c0,31.71-25.71,57.42-57.42,57.42s-57.42-25.71-57.42-57.42,25.71-57.42,57.42-57.42,57.42,25.71,57.42,57.42ZM1345.81,1019.41c0,31.71-25.71,57.42-57.42,57.42s-57.42-25.71-57.42-57.42,25.71-57.42,57.42-57.42,57.42,25.71,57.42,57.42ZM1181.6,888.5c0-31.71,25.71-57.42,57.42-57.42s57.42,25.71,57.42,57.42-25.71,57.42-57.42,57.42-57.42-25.71-57.42-57.42ZM1372.22,773.67c0,31.71-25.71,57.42-57.42,57.42s-57.42-25.71-57.42-57.42,25.71-57.42,57.42-57.42,57.42,25.71,57.42,57.42ZM1212.6,638.17c0-31.71,25.71-57.42,57.42-57.42s57.42,25.71,57.42,57.42-25.71,57.42-57.42,57.42-57.42-25.71-57.42-57.42ZM1422.74,517.6c0,31.71-25.71,57.42-57.42,57.42s-57.42-25.71-57.42-57.42,25.71-57.42,57.42-57.42,57.42,25.71,57.42,57.42ZM1353.85,387.84c0,31.71-25.71,57.42-57.42,57.42s-57.42-25.71-57.42-57.42,25.71-57.42,57.42-57.42,57.42,25.71,57.42,57.42ZM1251.65,194.93c31.71,0,57.42,25.71,57.42,57.42s-25.71,57.42-57.42,57.42-57.42-25.71-57.42-57.42,25.71-57.42,57.42-57.42ZM923.23,31.87c31.71,0,57.42,25.71,57.42,57.42s-25.71,57.42-57.42,57.42-57.42-25.71-57.42-57.42,25.71-57.42,57.42-57.42ZM777.4,15.79c31.71,0,57.42,25.71,57.42,57.42s-25.71,57.42-57.42,57.42-57.42-25.71-57.42-57.42,25.71-57.42,57.42-57.42ZM701.61,261.53c-31.71,0-57.42-25.71-57.42-57.42s25.71-57.42,57.42-57.42,57.42,25.71,57.42,57.42-25.71,57.42-57.42,57.42ZM834.81,261.53c-31.71,0-57.42-25.71-57.42-57.42s25.71-57.42,57.42-57.42,57.42,25.71,57.42,57.42-25.71,57.42-57.42,57.42ZM968.02,282.2c-31.71,0-57.42-25.71-57.42-57.42s25.71-57.42,57.42-57.42,57.42,25.71,57.42,57.42-25.71,57.42-57.42,57.42ZM1048.4,236.27c0-31.71,25.71-57.42,57.42-57.42s57.42,25.71,57.42,57.42-25.71,57.42-57.42,57.42-57.42-25.71-57.42-57.42ZM1105.81,367.17c0-31.71,25.71-57.42,57.42-57.42s57.42,25.71,57.42,57.42-25.71,57.42-57.42,57.42-57.42-25.71-57.42-57.42ZM1163.23,502.67c0-31.71,25.71-57.42,57.42-57.42s57.42,25.71,57.42,57.42-25.71,57.42-57.42,57.42-57.42-25.71-57.42-57.42ZM1181.6,695.59c31.71,0,57.42,25.71,57.42,57.42s-25.71,57.42-57.42,57.42-57.42-25.71-57.42-57.42,25.71-57.42,57.42-57.42ZM1048.4,867.83c0-31.71,25.71-57.42,57.42-57.42s57.42,25.71,57.42,57.42-25.71,57.42-57.42,57.42-57.42-25.71-57.42-57.42ZM1066.77,1007.92c0,31.71-25.71,57.42-57.42,57.42s-57.42-25.71-57.42-57.42,25.71-57.42,57.42-57.42,57.42,25.71,57.42,57.42ZM1048.4,695.59c31.71,0,57.42,25.71,57.42,57.42s-25.71,57.42-57.42,57.42-57.42-25.71-57.42-57.42,25.71-57.42,57.42-57.42ZM1021.99,872.42c0,31.71-25.71,57.42-57.42,57.42-6.99,0-13.68-1.25-19.87-3.54l-27.05,21.29c9.86,10.31,15.93,24.27,15.93,39.66,0,31.71-25.71,57.42-57.42,57.42-20.29,0-38.1-10.53-48.32-26.42l-34.07,26.81c2.17-.25,4.37-.39,6.6-.39,31.71,0,57.42,25.71,57.42,57.42s-25.71,57.42-57.42,57.42-57.42-25.71-57.42-57.42c0-6.96,1.24-13.63,3.51-19.8l-91.72,72.17c8.4-4.81,18.12-7.58,28.5-7.58,31.71,0,57.42,25.71,57.42,57.42s-25.71,57.42-57.42,57.42-57.42-25.71-57.42-57.42c0-15.29,5.99-29.17,15.73-39.46l-34.74,27.34c-4.13,27.66-27.97,48.87-56.78,48.87-1.7,0-3.38-.09-5.04-.23l-26.61,20.94c8.29,9.95,13.28,22.75,13.28,36.71,0,31.71-25.71,57.42-57.42,57.42s-57.42-25.71-57.42-57.42c0-22.66,13.13-42.24,32.19-51.58v-15.7c-9.18,6.23-20.26,9.87-32.19,9.87-31.71,0-57.42-25.71-57.42-57.42s25.71-57.42,57.42-57.42c11.93,0,23.01,3.64,32.19,9.87v-46.02c-8.61-10.04-13.82-23.07-13.82-37.33,0-16.01,6.56-30.48,17.12-40.89,1.58-11.34,3.73-22,6.45-31.97-23.01-7.48-39.65-29.09-39.65-54.6,0-31.71,25.71-57.42,57.42-57.42,18.75,0,35.4,8.99,45.88,22.89,23.39-13.42,52.36-20.14,86.93-20.14h34.53c-9.76-10.29-15.76-24.19-15.76-39.5,0-31.71,25.71-57.42,57.42-57.42s57.42,25.71,57.42,57.42c0,15.31-6,29.2-15.76,39.5h35.92c-1.16-4.55-1.78-9.32-1.78-14.23,0-31.71,25.71-57.42,57.42-57.42s57.42,25.71,57.42,57.42c0,4.91-.62,9.68-1.78,14.23h32.83c.98-30.85,26.28-55.57,57.37-55.57s57.42,25.71,57.42,57.42ZM664.87,1319.11c0,31.71-25.71,57.42-57.42,57.42s-57.42-25.71-57.42-57.42,25.71-57.42,57.42-57.42,57.42,25.71,57.42,57.42ZM336.45,1162.94c0,31.71-25.71,57.42-57.42,57.42s-57.42-25.71-57.42-57.42,25.71-57.42,57.42-57.42,57.42,25.71,57.42,57.42ZM297.41,1048.11c0-31.71,25.71-57.42,57.42-57.42s57.42,25.71,57.42,57.42-25.71,57.42-57.42,57.42-57.42-25.71-57.42-57.42ZM310.04,1238.73c31.71,0,57.42,25.71,57.42,57.42s-25.71,57.42-57.42,57.42-57.42-25.71-57.42-57.42,25.71-57.42,57.42-57.42ZM494.92,810.42c0-31.71,25.71-57.42,57.42-57.42s57.42,25.71,57.42,57.42-25.71,57.42-57.42,57.42-57.42-25.71-57.42-57.42ZM908.31,663.43c31.71,0,57.42,25.71,57.42,57.42s-25.71,57.42-57.42,57.42-57.42-25.71-57.42-57.42,25.71-57.42,57.42-57.42ZM775.1,642.76c31.71,0,57.42,25.71,57.42,57.42s-25.71,57.42-57.42,57.42-57.42-25.71-57.42-57.42,25.71-57.42,57.42-57.42ZM640.75,638.17c31.71,0,57.42,25.71,57.42,57.42s-25.71,57.42-57.42,57.42-57.42-25.71-57.42-57.42,25.71-57.42,57.42-57.42ZM494.92,622.09c31.71,0,57.42,25.71,57.42,57.42s-25.71,57.42-57.42,57.42-57.42-25.71-57.42-57.42,25.71-57.42,57.42-57.42ZM419.13,753c31.71,0,57.42,25.71,57.42,57.42s-25.71,57.42-57.42,57.42-57.42-25.71-57.42-57.42,25.71-57.42,57.42-57.42ZM367.46,912.61c0,31.71-25.71,57.42-57.42,57.42s-57.42-25.71-57.42-57.42,25.71-57.42,57.42-57.42,57.42,25.71,57.42,57.42ZM211.29,786.3c0-31.71,25.71-57.42,57.42-57.42s57.42,25.71,57.42,57.42-25.71,57.42-57.42,57.42-57.42-25.71-57.42-57.42ZM164.21,1027.44c0-31.71,25.71-57.42,57.42-57.42s57.42,25.71,57.42,57.42-25.71,57.42-57.42,57.42-57.42-25.71-57.42-57.42ZM164.21,1410.98c0-31.71,25.71-57.42,57.42-57.42s57.42,25.71,57.42,57.42-25.71,57.42-57.42,57.42-57.42-25.71-57.42-57.42ZM279.04,1603.89c-31.71,0-57.42-25.71-57.42-57.42s25.71-57.42,57.42-57.42,57.42,25.71,57.42,57.42-25.71,57.42-57.42,57.42ZM297.41,1431.65c0-31.71,25.71-57.42,57.42-57.42s57.42,25.71,57.42,57.42-25.71,57.42-57.42,57.42-57.42-25.71-57.42-57.42ZM416.83,1642.93c-31.71,0-57.42-25.71-57.42-57.42s25.71-57.42,57.42-57.42,57.42,25.71,57.42,57.42-25.71,57.42-57.42,57.42ZM550.04,1642.93c-31.71,0-57.42-25.71-57.42-57.42s25.71-57.42,57.42-57.42,57.42,25.71,57.42,57.42-25.71,57.42-57.42,57.42ZM683.24,1663.6c-31.71,0-57.42-25.71-57.42-57.42s25.71-57.42,57.42-57.42,57.42,25.71,57.42,57.42-25.71,57.42-57.42,57.42ZM933.57,1563.7c-31.71,0-57.42-25.71-57.42-57.42,0-11.36,3.32-21.95,9.01-30.86h-28.3c.59,3.31.92,6.71.92,10.19,0,31.71-25.71,57.42-57.42,57.42s-57.42-25.71-57.42-57.42c0-3.48.33-6.88.92-10.19h-48.21c-2.41,29.49-27.09,52.68-57.2,52.68s-55.72-24.05-57.33-54.32c-11.56-1.41-22.36-3.74-32.4-6.98-5.59,25.85-28.58,45.22-56.11,45.22-31.71,0-57.42-25.71-57.42-57.42s25.71-57.42,57.42-57.42,57.42,25.71,57.42,57.42c0,.48-.02.94-.04,1.42l142.02-111.75c7.52-14.43,20.99-25.26,37.16-29.24l46.82-36.84c-9.12-10.16-14.68-23.6-14.68-38.33,0-31.71,25.71-57.42,57.42-57.42,19.63,0,36.96,9.86,47.31,24.89l42.1-33.12c-18.95-9.38-31.99-28.9-31.99-51.48,0-31.71,25.71-57.42,57.42-57.42,27.38,0,50.27,19.17,56.01,44.82l102.06-80.3c-4.14-7.94-6.5-16.95-6.5-26.52,0-31.71,25.71-57.42,57.42-57.42s57.42,25.71,57.42,57.42-25.71,57.42-57.42,57.42c-13.81,0-26.47-4.88-36.38-13,.18,5.01.28,10.11.28,15.34v29.68c10.92,10.45,17.73,25.16,17.73,41.47s-6.81,31.02-17.73,41.47v18.75c5.58-1.81,11.54-2.8,17.73-2.8,31.71,0,57.42,25.71,57.42,57.42s-25.71,57.42-57.42,57.42c-6.37,0-12.5-1.05-18.22-2.97-4.89,100.92-46.79,157.38-125.66,169.45,6.71,9.4,10.68,20.9,10.68,33.33,0,31.71-25.71,57.42-57.42,57.42ZM1021.99,1520.07c0-31.71,25.71-57.42,57.42-57.42s57.42,25.71,57.42,57.42-25.71,57.42-57.42,57.42-57.42-25.71-57.42-57.42ZM1136.82,1692.31c-31.71,0-57.42-25.71-57.42-57.42s25.71-57.42,57.42-57.42,57.42,25.71,57.42,57.42-25.71,57.42-57.42,57.42ZM1270.02,1712.98c-31.71,0-57.42-25.71-57.42-57.42s25.71-57.42,57.42-57.42,57.42,25.71,57.42,57.42-25.71,57.42-57.42,57.42ZM1345.81,1598.15c-31.71,0-57.42-25.71-57.42-57.42s25.71-57.42,57.42-57.42,57.42,25.71,57.42,57.42-25.71,57.42-57.42,57.42Z"/>
    </g>
  </g>
  <g id="Layer_4" data-name="Layer 4">
    <g>
      <circle class="cls-2" cx="141.24" cy="132.92" r="55.42"/>
      <path class="cls-4" d="M141.24,79.5c29.45,0,53.42,23.96,53.42,53.41s-23.96,53.42-53.42,53.42-53.41-23.96-53.41-53.42,23.96-53.41,53.41-53.41M141.24,75.5c-31.71,0-57.41,25.71-57.41,57.41s25.71,57.42,57.41,57.42,57.42-25.71,57.42-57.42-25.71-57.41-57.42-57.41h0Z"/>
    </g>
    <g>
      <circle class="cls-2" cx="198.66" cy="263.82" r="55.42"/>
      <path class="cls-4" d="M198.66,210.41c29.45,0,53.42,23.96,53.42,53.41s-23.96,53.42-53.42,53.42-53.42-23.96-53.42-53.42,23.96-53.41,53.42-53.41M198.66,206.41c-31.71,0-57.42,25.71-57.42,57.41s25.71,57.42,57.42,57.42,57.42-25.71,57.42-57.42-25.71-57.41-57.42-57.41h0Z"/>
    </g>
    <g>
      <circle class="cls-2" cx="65.45" cy="263.82" r="55.42"/>
      <path class="cls-4" d="M65.45,210.41c29.45,0,53.41,23.96,53.41,53.41s-23.96,53.42-53.41,53.42-53.41-23.96-53.41-53.42,23.96-53.41,53.41-53.41M65.45,206.41c-31.71,0-57.41,25.71-57.41,57.41s25.71,57.42,57.41,57.42,57.41-25.71,57.41-57.42-25.71-57.41-57.41-57.41h0Z"/>
    </g>
    <g>
      <circle class="cls-2" cx="122.87" cy="378.65" r="55.42"/>
      <path class="cls-4" d="M122.87,325.24c29.45,0,53.42,23.96,53.42,53.42s-23.96,53.41-53.42,53.41-53.41-23.96-53.41-53.41,23.96-53.42,53.41-53.42M122.87,321.24c-31.71,0-57.41,25.71-57.41,57.42s25.71,57.41,57.41,57.41,57.42-25.71,57.42-57.41-25.71-57.42-57.42-57.42h0Z"/>
    </g>
    <g>
      <circle class="cls-2" cx="287.07" cy="148.99" r="55.41"/>
      <path class="cls-4" d="M287.07,95.58c29.45,0,53.42,23.96,53.42,53.41s-23.96,53.42-53.42,53.42-53.41-23.96-53.41-53.42,23.96-53.41,53.41-53.41M287.07,91.58c-31.71,0-57.41,25.71-57.41,57.41s25.71,57.42,57.41,57.42,57.42-25.71,57.42-57.42-25.71-57.41-57.42-57.41h0Z"/>
    </g>
    <g>
      <circle class="cls-2" cx="331.86" cy="284.49" r="55.42"/>
      <path class="cls-4" d="M331.86,231.08c29.45,0,53.41,23.96,53.41,53.42s-23.96,53.42-53.41,53.42-53.42-23.96-53.42-53.42,23.96-53.42,53.42-53.42M331.86,227.08c-31.71,0-57.42,25.71-57.42,57.42s25.71,57.42,57.42,57.42,57.41-25.71,57.41-57.42-25.71-57.42-57.41-57.42h0Z"/>
    </g>
    <g>
      <circle class="cls-2" cx="256.07" cy="399.32" r="55.42"/>
      <path class="cls-4" d="M256.07,345.91c29.45,0,53.42,23.96,53.42,53.42s-23.96,53.41-53.42,53.41-53.42-23.96-53.42-53.41,23.96-53.42,53.42-53.42M256.07,341.91c-31.71,0-57.42,25.71-57.42,57.42s25.71,57.41,57.42,57.41,57.42-25.71,57.42-57.41-25.71-57.42-57.42-57.42h0Z"/>
    </g>
    <g>
      <circle class="cls-2" cx="161.91" cy="514.15" r="55.42"/>
      <path class="cls-4" d="M161.91,460.74c29.45,0,53.42,23.96,53.42,53.42s-23.96,53.41-53.42,53.41-53.41-23.96-53.41-53.41,23.96-53.42,53.41-53.42M161.91,456.74c-31.71,0-57.41,25.71-57.41,57.42s25.71,57.41,57.41,57.41,57.42-25.71,57.42-57.41-25.71-57.42-57.42-57.42h0Z"/>
    </g>
    <g>
      <circle class="cls-2" cx="219.33" cy="645.06" r="55.42"/>
      <path class="cls-4" d="M219.33,591.65c29.45,0,53.42,23.96,53.42,53.42s-23.96,53.41-53.42,53.41-53.42-23.96-53.42-53.41,23.96-53.42,53.42-53.42M219.33,587.65c-31.71,0-57.42,25.71-57.42,57.42s25.71,57.41,57.42,57.41,57.42-25.71,57.42-57.41-25.71-57.42-57.42-57.42h0Z"/>
    </g>
    <g>
      <circle class="cls-2" cx="86.12" cy="645.06" r="55.42"/>
      <path class="cls-4" d="M86.12,591.65c29.45,0,53.41,23.96,53.41,53.42s-23.96,53.41-53.41,53.41-53.41-23.96-53.41-53.41,23.96-53.42,53.41-53.42M86.12,587.65c-31.71,0-57.41,25.71-57.41,57.42s25.71,57.41,57.41,57.41,57.41-25.71,57.41-57.41-25.71-57.42-57.41-57.42h0Z"/>
    </g>
    <g>
      <circle class="cls-2" cx="143.54" cy="759.89" r="55.41" transform="translate(-279.87 112.77) rotate(-22.5)"/>
      <path class="cls-4" d="M143.54,706.48c29.45,0,53.42,23.96,53.42,53.42s-23.96,53.41-53.42,53.41-53.41-23.96-53.41-53.41,23.96-53.42,53.41-53.42M143.54,702.48c-31.71,0-57.41,25.71-57.41,57.42s25.71,57.41,57.41,57.41,57.42-25.71,57.42-57.41-25.71-57.42-57.42-57.42h0Z"/>
    </g>
    <g>
      <circle class="cls-2" cx="307.74" cy="530.23" r="55.42"/>
      <path class="cls-4" d="M307.74,476.82c29.45,0,53.41,23.96,53.41,53.42s-23.96,53.41-53.41,53.41-53.42-23.96-53.42-53.41,23.96-53.42,53.42-53.42M307.74,472.82c-31.71,0-57.42,25.71-57.42,57.42s25.71,57.41,57.42,57.41,57.41-25.71,57.41-57.41-25.71-57.42-57.41-57.42h0Z"/>
    </g>
    <g>
      <circle class="cls-2" cx="352.53" cy="665.73" r="55.42"/>
      <path class="cls-4" d="M352.53,612.31c29.45,0,53.42,23.96,53.42,53.41s-23.96,53.42-53.42,53.42-53.42-23.96-53.42-53.42,23.96-53.41,53.42-53.41M352.53,608.31c-31.71,0-57.42,25.71-57.42,57.41s25.71,57.42,57.42,57.42,57.42-25.71,57.42-57.42-25.71-57.41-57.42-57.41h0Z"/>
    </g>
    <g>
      <circle class="cls-2" cx="276.74" cy="780.56" r="55.42"/>
      <path class="cls-4" d="M276.74,727.14c29.45,0,53.42,23.96,53.42,53.41s-23.96,53.41-53.42,53.41-53.42-23.96-53.42-53.41,23.96-53.41,53.42-53.41M276.74,723.14c-31.71,0-57.42,25.71-57.42,57.41s25.71,57.41,57.42,57.41,57.42-25.71,57.42-57.41-25.71-57.41-57.42-57.41h0Z"/>
    </g>
    <g>
      <circle class="cls-2" cx="477.69" cy="284.49" r="55.42"/>
      <path class="cls-4" d="M477.69,231.08c29.45,0,53.41,23.96,53.41,53.42s-23.96,53.42-53.41,53.42-53.42-23.96-53.42-53.42,23.96-53.42,53.42-53.42M477.69,227.08c-31.71,0-57.42,25.71-57.42,57.42s25.71,57.42,57.42,57.42,57.41-25.71,57.41-57.42-25.71-57.42-57.41-57.42h0Z"/>
    </g>
    <g>
      <circle class="cls-2" cx="535.11" cy="415.4" r="55.41" transform="translate(-118.23 236.4) rotate(-22.5)"/>
      <path class="cls-4" d="M535.11,361.99c29.45,0,53.42,23.96,53.42,53.42s-23.96,53.41-53.42,53.41-53.41-23.96-53.41-53.41,23.96-53.42,53.41-53.42M535.11,357.99c-31.71,0-57.41,25.71-57.41,57.42s25.71,57.41,57.41,57.41,57.42-25.71,57.42-57.41-25.71-57.42-57.42-57.42h0Z"/>
    </g>
    <g>
      <circle class="cls-2" cx="401.9" cy="415.4" r="55.42"/>
      <path class="cls-4" d="M401.9,361.99c29.45,0,53.42,23.96,53.42,53.42s-23.96,53.41-53.42,53.41-53.41-23.96-53.41-53.41,23.96-53.42,53.41-53.42M401.9,357.99c-31.71,0-57.41,25.71-57.41,57.42s25.71,57.41,57.41,57.41,57.42-25.71,57.42-57.41-25.71-57.42-57.42-57.42h0Z"/>
    </g>
    <g>
      <circle class="cls-2" cx="459.32" cy="530.23" r="55.42"/>
      <path class="cls-4" d="M459.32,476.82c29.45,0,53.41,23.96,53.41,53.42s-23.96,53.41-53.41,53.41-53.42-23.96-53.42-53.41,23.96-53.42,53.42-53.42M459.32,472.82c-31.71,0-57.42,25.71-57.42,57.42s25.71,57.41,57.42,57.41,57.41-25.71,57.41-57.41-25.71-57.42-57.41-57.42h0Z"/>
    </g>
    <g>
      <circle class="cls-2" cx="623.53" cy="300.57" r="55.42"/>
      <path class="cls-4" d="M623.53,247.16c29.45,0,53.41,23.96,53.41,53.42s-23.96,53.42-53.41,53.42-53.42-23.96-53.42-53.42,23.96-53.42,53.42-53.42M623.53,243.16c-31.71,0-57.42,25.71-57.42,57.42s25.71,57.42,57.42,57.42,57.41-25.71,57.41-57.42-25.71-57.42-57.41-57.42h0Z"/>
    </g>
    <g>
      <circle class="cls-2" cx="668.31" cy="436.07" r="55.42"/>
      <path class="cls-4" d="M668.31,382.65c29.45,0,53.41,23.96,53.41,53.41s-23.96,53.42-53.41,53.42-53.42-23.96-53.42-53.42,23.96-53.41,53.42-53.41M668.31,378.65c-31.71,0-57.42,25.71-57.42,57.41s25.71,57.42,57.42,57.42,57.41-25.71,57.41-57.42-25.71-57.41-57.41-57.41h0Z"/>
    </g>
    <g>
      <circle class="cls-2" cx="592.52" cy="550.9" r="55.42" transform="translate(-46.18 1047.53) rotate(-80.78)"/>
      <path class="cls-4" d="M592.52,497.48c29.45,0,53.41,23.96,53.41,53.41s-23.96,53.42-53.41,53.42-53.42-23.96-53.42-53.42,23.96-53.41,53.42-53.41M592.52,493.48c-31.71,0-57.42,25.71-57.42,57.41s25.71,57.42,57.42,57.42,57.41-25.71,57.41-57.42-25.71-57.41-57.41-57.41h0Z"/>
    </g>
    <g>
      <circle class="cls-2" cx="502.96" cy="673.77" r="55.42"/>
      <path class="cls-4" d="M502.96,620.35c29.45,0,53.42,23.96,53.42,53.41s-23.96,53.42-53.42,53.42-53.41-23.96-53.41-53.42,23.96-53.41,53.41-53.41M502.96,616.35c-31.71,0-57.41,25.71-57.41,57.41s25.71,57.42,57.41,57.42,57.42-25.71,57.42-57.42-25.71-57.41-57.42-57.41h0Z"/>
    </g>
    <g>
      <circle class="cls-2" cx="560.37" cy="804.67" r="55.42"/>
      <path class="cls-4" d="M560.37,751.26c29.45,0,53.41,23.96,53.41,53.42s-23.96,53.41-53.41,53.41-53.42-23.96-53.42-53.41,23.96-53.42,53.42-53.42M560.37,747.26c-31.71,0-57.42,25.71-57.42,57.42s25.71,57.41,57.42,57.41,57.41-25.71,57.41-57.41-25.71-57.42-57.41-57.42h0Z"/>
    </g>
    <g>
      <circle class="cls-2" cx="427.17" cy="804.67" r="55.42"/>
      <path class="cls-4" d="M427.17,751.26c29.45,0,53.41,23.96,53.41,53.42s-23.96,53.41-53.41,53.41-53.42-23.96-53.42-53.41,23.96-53.42,53.42-53.42M427.17,747.26c-31.71,0-57.42,25.71-57.42,57.42s25.71,57.41,57.42,57.41,57.41-25.71,57.41-57.41-25.71-57.42-57.41-57.42h0Z"/>
    </g>
    <g>
      <circle class="cls-2" cx="484.58" cy="919.5" r="55.41"/>
      <path class="cls-4" d="M484.58,866.09c29.45,0,53.42,23.96,53.42,53.41s-23.96,53.42-53.42,53.42-53.41-23.96-53.41-53.42,23.96-53.41,53.41-53.41M484.58,862.09c-31.71,0-57.41,25.71-57.41,57.41s25.71,57.42,57.41,57.42,57.42-25.71,57.42-57.42-25.71-57.41-57.42-57.41h0Z"/>
    </g>
    <g>
      <circle class="cls-2" cx="648.79" cy="689.84" r="55.42"/>
      <path class="cls-4" d="M648.79,636.43c29.45,0,53.42,23.96,53.42,53.41s-23.96,53.41-53.42,53.41-53.41-23.96-53.41-53.41,23.96-53.41,53.41-53.41M648.79,632.43c-31.71,0-57.41,25.71-57.41,57.41s25.71,57.41,57.41,57.41,57.42-25.71,57.42-57.41-25.71-57.41-57.42-57.41h0Z"/>
    </g>
    <g>
      <circle class="cls-2" cx="693.57" cy="825.34" r="55.42"/>
      <path class="cls-4" d="M693.57,771.93c29.45,0,53.42,23.96,53.42,53.41s-23.96,53.42-53.42,53.42-53.41-23.96-53.41-53.42,23.96-53.41,53.41-53.41M693.57,767.93c-31.71,0-57.41,25.71-57.41,57.41s25.71,57.42,57.41,57.42,57.42-25.71,57.42-57.42-25.71-57.41-57.42-57.41h0Z"/>
    </g>
    <g>
      <circle class="cls-2" cx="801.51" cy="448.7" r="55.42" transform="translate(-110.7 340.88) rotate(-22.5)"/>
      <path class="cls-4" d="M801.51,395.29c29.45,0,53.41,23.96,53.41,53.42s-23.96,53.41-53.41,53.41-53.42-23.96-53.42-53.41,23.96-53.42,53.42-53.42M801.51,391.29c-31.71,0-57.42,25.71-57.42,57.42s25.71,57.41,57.42,57.41,57.41-25.71,57.41-57.41-25.71-57.42-57.41-57.42h0Z"/>
    </g>
    <g>
      <circle class="cls-2" cx="858.93" cy="579.61" r="55.42" transform="translate(149.22 1334.6) rotate(-80.78)"/>
      <path class="cls-4" d="M858.93,526.19c29.45,0,53.41,23.96,53.41,53.41s-23.96,53.42-53.41,53.42-53.41-23.96-53.41-53.42,23.96-53.41,53.41-53.41M858.93,522.19c-31.71,0-57.41,25.71-57.41,57.41s25.71,57.42,57.41,57.42,57.41-25.71,57.41-57.42-25.71-57.41-57.41-57.41h0Z"/>
    </g>
    <g>
      <circle class="cls-2" cx="725.73" cy="579.61" r="55.42"/>
      <path class="cls-4" d="M725.73,526.19c29.45,0,53.42,23.96,53.42,53.41s-23.96,53.42-53.42,53.42-53.41-23.96-53.41-53.42,23.96-53.41,53.41-53.41M725.73,522.19c-31.71,0-57.41,25.71-57.41,57.41s25.71,57.42,57.41,57.42,57.42-25.71,57.42-57.42-25.71-57.41-57.42-57.41h0Z"/>
    </g>
    <g>
      <circle class="cls-2" cx="783.14" cy="694.44" r="55.42"/>
      <path class="cls-4" d="M783.14,641.02c29.45,0,53.41,23.96,53.41,53.41s-23.96,53.41-53.41,53.41-53.42-23.96-53.42-53.41,23.96-53.41,53.42-53.41M783.14,637.02c-31.71,0-57.42,25.71-57.42,57.41s25.71,57.41,57.42,57.41,57.41-25.71,57.41-57.41-25.71-57.41-57.41-57.41h0Z"/>
    </g>
    <g>
      <circle class="cls-2" cx="947.35" cy="464.78" r="55.42"/>
      <path class="cls-4" d="M947.35,411.36c29.45,0,53.41,23.96,53.41,53.42s-23.96,53.42-53.41,53.42-53.42-23.96-53.42-53.42,23.96-53.42,53.42-53.42M947.35,407.36c-31.71,0-57.42,25.71-57.42,57.42s25.71,57.42,57.42,57.42,57.41-25.71,57.41-57.42-25.71-57.42-57.41-57.42h0Z"/>
    </g>
    <g>
      <circle class="cls-2" cx="992.13" cy="600.28" r="55.42"/>
      <path class="cls-4" d="M992.13,546.86c29.45,0,53.42,23.96,53.42,53.42s-23.96,53.41-53.42,53.41-53.42-23.96-53.42-53.41,23.96-53.42,53.42-53.42M992.13,542.86c-31.71,0-57.42,25.71-57.42,57.42s25.71,57.41,57.42,57.41,57.42-25.71,57.42-57.41-25.71-57.42-57.42-57.42h0Z"/>
    </g>
    <g>
      <path class="cls-2" d="M916.34,770.52c-30.56,0-55.42-24.86-55.42-55.42s24.86-55.42,55.42-55.42,55.41,24.86,55.41,55.42-24.86,55.42-55.41,55.42Z"/>
      <path class="cls-4" d="M916.34,661.69c29.45,0,53.42,23.96,53.42,53.41s-23.96,53.42-53.42,53.42-53.41-23.96-53.41-53.42,23.96-53.41,53.41-53.41M916.34,657.69c-31.71,0-57.41,25.71-57.41,57.41s25.71,57.42,57.41,57.42,57.42-25.71,57.42-57.42-25.71-57.41-57.42-57.41h0Z"/>
    </g>
    <g>
      <path class="cls-2" d="M826.78,906.02c-30.56,0-55.42-24.86-55.42-55.42s24.86-55.41,55.42-55.41,55.41,24.86,55.41,55.41-24.86,55.42-55.41,55.42Z"/>
      <path class="cls-4" d="M826.78,797.19c29.45,0,53.42,23.96,53.42,53.42s-23.96,53.41-53.42,53.41-53.41-23.96-53.41-53.41,23.96-53.42,53.41-53.42M826.78,793.19c-31.71,0-57.41,25.71-57.41,57.42s25.71,57.41,57.41,57.41,57.42-25.71,57.42-57.41-25.71-57.42-57.42-57.42h0Z"/>
    </g>
    <g>
      <path class="cls-2" d="M884.19,1036.93c-30.56,0-55.41-24.86-55.41-55.42s24.86-55.42,55.41-55.42,55.42,24.86,55.42,55.42-24.86,55.42-55.42,55.42Z"/>
      <path class="cls-4" d="M884.19,928.1c29.45,0,53.41,23.96,53.41,53.42s-23.96,53.41-53.41,53.41-53.42-23.96-53.42-53.41,23.96-53.42,53.42-53.42M884.19,924.1c-31.71,0-57.42,25.71-57.42,57.42s25.71,57.41,57.42,57.41,57.41-25.71,57.41-57.41-25.71-57.42-57.41-57.42h0Z"/>
    </g>
    <g>
      <circle class="cls-2" cx="750.99" cy="981.51" r="55.42"/>
      <path class="cls-4" d="M750.99,928.1c29.45,0,53.41,23.96,53.41,53.42s-23.96,53.41-53.41,53.41-53.42-23.96-53.42-53.41,23.96-53.42,53.42-53.42M750.99,924.1c-31.71,0-57.42,25.71-57.42,57.42s25.71,57.41,57.42,57.41,57.41-25.71,57.41-57.41-25.71-57.42-57.41-57.42h0Z"/>
    </g>
    <g>
      <circle class="cls-2" cx="808.4" cy="1096.34" r="55.42"/>
      <path class="cls-4" d="M808.4,1042.93c29.45,0,53.41,23.96,53.41,53.42s-23.96,53.41-53.41,53.41-53.41-23.96-53.41-53.41,23.96-53.42,53.41-53.42M808.4,1038.93c-31.71,0-57.41,25.71-57.41,57.42s25.71,57.41,57.41,57.41,57.41-25.71,57.41-57.41-25.71-57.42-57.41-57.42h0Z"/>
    </g>
    <g>
      <circle class="cls-2" cx="972.61" cy="866.68" r="55.41"/>
      <path class="cls-4" d="M972.61,813.27c29.45,0,53.42,23.96,53.42,53.41s-23.96,53.41-53.42,53.41-53.42-23.96-53.42-53.41,23.96-53.41,53.42-53.41M972.61,809.27c-31.71,0-57.42,25.71-57.42,57.41s25.71,57.41,57.42,57.41,57.42-25.71,57.42-57.41-25.71-57.41-57.42-57.41h0Z"/>
    </g>
    <g>
      <circle class="cls-2" cx="1017.39" cy="1002.18" r="55.42"/>
      <path class="cls-4" d="M1017.39,948.77c29.45,0,53.42,23.96,53.42,53.41s-23.96,53.42-53.42,53.42-53.42-23.96-53.42-53.42,23.96-53.41,53.42-53.41M1017.39,944.77c-31.71,0-57.42,25.71-57.42,57.41s25.71,57.42,57.42,57.42,57.42-25.71,57.42-57.42-25.71-57.41-57.42-57.41h0Z"/>
    </g>
    <g>
      <circle class="cls-2" cx="941.61" cy="1117.01" r="55.42"/>
      <path class="cls-4" d="M941.61,1063.6c29.45,0,53.42,23.96,53.42,53.42s-23.96,53.41-53.42,53.41-53.41-23.96-53.41-53.41,23.96-53.42,53.41-53.42M941.61,1059.6c-31.71,0-57.41,25.71-57.41,57.42s25.71,57.41,57.41,57.41,57.42-25.71,57.42-57.41-25.71-57.42-57.42-57.42h0Z"/>
    </g>
    <g>
      <circle class="cls-2" cx="1132.22" cy="616.35" r="55.42"/>
      <path class="cls-4" d="M1132.22,562.94c29.45,0,53.42,23.96,53.42,53.41s-23.96,53.41-53.42,53.41-53.41-23.96-53.41-53.41,23.96-53.41,53.41-53.41M1132.22,558.94c-31.71,0-57.41,25.71-57.41,57.41s25.71,57.41,57.41,57.41,57.42-25.71,57.42-57.41-25.71-57.41-57.42-57.41h0Z"/>
    </g>
    <g>
      <circle class="cls-2" cx="1189.64" cy="747.26" r="55.42"/>
      <path class="cls-4" d="M1189.64,693.84c29.45,0,53.42,23.96,53.42,53.41s-23.96,53.42-53.42,53.42-53.42-23.96-53.42-53.42,23.96-53.41,53.42-53.41M1189.64,689.84c-31.71,0-57.42,25.71-57.42,57.41s25.71,57.42,57.42,57.42,57.42-25.71,57.42-57.42-25.71-57.41-57.42-57.41h0Z"/>
    </g>
    <g>
      <circle class="cls-2" cx="1056.44" cy="747.26" r="55.42"/>
      <path class="cls-4" d="M1056.44,693.84c29.45,0,53.41,23.96,53.41,53.41s-23.96,53.42-53.41,53.42-53.42-23.96-53.42-53.42,23.96-53.41,53.42-53.41M1056.44,689.84c-31.71,0-57.42,25.71-57.42,57.41s25.71,57.42,57.42,57.42,57.41-25.71,57.41-57.42-25.71-57.41-57.41-57.41h0Z"/>
    </g>
    <g>
      <circle class="cls-2" cx="1113.85" cy="862.09" r="55.42"/>
      <path class="cls-4" d="M1113.85,808.67c29.45,0,53.42,23.96,53.42,53.41s-23.96,53.41-53.42,53.41-53.41-23.96-53.41-53.41,23.96-53.41,53.41-53.41M1113.85,804.67c-31.71,0-57.41,25.71-57.41,57.41s25.71,57.41,57.41,57.41,57.42-25.71,57.42-57.41-25.71-57.41-57.42-57.41h0Z"/>
    </g>
    <g>
      <circle class="cls-2" cx="1278.06" cy="632.43" r="55.42"/>
      <path class="cls-4" d="M1278.06,579.01c29.45,0,53.42,23.96,53.42,53.42s-23.96,53.41-53.42,53.41-53.41-23.96-53.41-53.41,23.96-53.42,53.41-53.42M1278.06,575.01c-31.71,0-57.41,25.71-57.41,57.42s25.71,57.41,57.41,57.41,57.42-25.71,57.42-57.41-25.71-57.42-57.42-57.42h0Z"/>
    </g>
    <g>
      <circle class="cls-2" cx="1322.84" cy="767.93" r="55.42"/>
      <path class="cls-4" d="M1322.84,714.51c29.45,0,53.42,23.96,53.42,53.42s-23.96,53.41-53.42,53.41-53.41-23.96-53.41-53.41,23.96-53.42,53.41-53.42M1322.84,710.51c-31.71,0-57.41,25.71-57.41,57.42s25.71,57.41,57.41,57.41,57.42-25.71,57.42-57.41-25.71-57.42-57.42-57.42h0Z"/>
    </g>
    <g>
      <circle class="cls-2" cx="1247.05" cy="882.76" r="55.42"/>
      <path class="cls-4" d="M1247.05,829.34c29.45,0,53.42,23.96,53.42,53.42s-23.96,53.41-53.42,53.41-53.42-23.96-53.42-53.41,23.96-53.42,53.42-53.42M1247.05,825.34c-31.71,0-57.42,25.71-57.42,57.42s25.71,57.41,57.42,57.41,57.42-25.71,57.42-57.41-25.71-57.42-57.42-57.42h0Z"/>
    </g>
    <g>
      <circle class="cls-2" cx="1150.6" cy="997.59" r="55.42"/>
      <path class="cls-4" d="M1150.6,944.17c29.45,0,53.42,23.96,53.42,53.42s-23.96,53.41-53.42,53.41-53.41-23.96-53.41-53.41,23.96-53.42,53.41-53.42M1150.6,940.17c-31.71,0-57.41,25.71-57.41,57.42s25.71,57.41,57.41,57.41,57.42-25.71,57.42-57.41-25.71-57.42-57.42-57.42h0Z"/>
    </g>
    <g>
      <circle class="cls-2" cx="1208.01" cy="1128.5" r="55.42"/>
      <path class="cls-4" d="M1208.01,1075.08c29.45,0,53.42,23.96,53.42,53.41s-23.96,53.42-53.42,53.42-53.42-23.96-53.42-53.42,23.96-53.41,53.42-53.41M1208.01,1071.08c-31.71,0-57.42,25.71-57.42,57.41s25.71,57.42,57.42,57.42,57.42-25.71,57.42-57.42-25.71-57.41-57.42-57.41h0Z"/>
    </g>
    <g>
      <circle class="cls-2" cx="1074.81" cy="1128.5" r="55.42"/>
      <path class="cls-4" d="M1074.81,1075.08c29.45,0,53.41,23.96,53.41,53.41s-23.96,53.42-53.41,53.42-53.42-23.96-53.42-53.42,23.96-53.41,53.42-53.41M1074.81,1071.08c-31.71,0-57.42,25.71-57.42,57.41s25.71,57.42,57.42,57.42,57.41-25.71,57.41-57.42-25.71-57.41-57.41-57.41h0Z"/>
    </g>
    <g>
      <circle class="cls-2" cx="1132.22" cy="1243.33" r="55.42"/>
      <path class="cls-4" d="M1132.22,1189.91c29.45,0,53.42,23.96,53.42,53.42s-23.96,53.41-53.42,53.41-53.41-23.96-53.41-53.41,23.96-53.42,53.41-53.42M1132.22,1185.91c-31.71,0-57.41,25.71-57.41,57.42s25.71,57.41,57.41,57.41,57.42-25.71,57.42-57.41-25.71-57.42-57.42-57.42h0Z"/>
    </g>
    <g>
      <circle class="cls-2" cx="1296.43" cy="1013.67" r="55.42"/>
      <path class="cls-4" d="M1296.43,960.25c29.45,0,53.42,23.96,53.42,53.42s-23.96,53.42-53.42,53.42-53.41-23.96-53.41-53.42,23.96-53.42,53.41-53.42M1296.43,956.25c-31.71,0-57.41,25.71-57.41,57.42s25.71,57.42,57.41,57.42,57.42-25.71,57.42-57.42-25.71-57.42-57.42-57.42h0Z"/>
    </g>
    <g>
      <circle class="cls-2" cx="1341.21" cy="1149.16" r="55.42"/>
      <path class="cls-4" d="M1341.21,1095.75c29.45,0,53.42,23.96,53.42,53.42s-23.96,53.42-53.42,53.42-53.41-23.96-53.41-53.42,23.96-53.42,53.41-53.42M1341.21,1091.75c-31.71,0-57.41,25.71-57.41,57.42s25.71,57.42,57.41,57.42,57.42-25.71,57.42-57.42-25.71-57.42-57.42-57.42h0Z"/>
    </g>
    <g>
      <circle class="cls-2" cx="1265.43" cy="1263.99" r="55.42"/>
      <path class="cls-4" d="M1265.43,1210.58c29.45,0,53.41,23.96,53.41,53.41s-23.96,53.42-53.41,53.42-53.42-23.96-53.42-53.42,23.96-53.41,53.42-53.41M1265.43,1206.58c-31.71,0-57.42,25.71-57.42,57.41s25.71,57.42,57.42,57.42,57.41-25.71,57.41-57.42-25.71-57.41-57.41-57.41h0Z"/>
    </g>
    <g>
      <circle class="cls-2" cx="500.66" cy="1046.97" r="55.42"/>
      <path class="cls-4" d="M500.66,993.55c29.45,0,53.41,23.96,53.41,53.41s-23.96,53.42-53.41,53.42-53.42-23.96-53.42-53.42,23.96-53.41,53.42-53.41M500.66,989.55c-31.71,0-57.42,25.71-57.42,57.41s25.71,57.42,57.42,57.42,57.41-25.71,57.41-57.42-25.71-57.41-57.41-57.41h0Z"/>
    </g>
    <g>
      <circle class="cls-2" cx="558.07" cy="1177.87" r="55.42"/>
      <path class="cls-4" d="M558.07,1124.46c29.45,0,53.41,23.96,53.41,53.42s-23.96,53.42-53.41,53.42-53.41-23.96-53.41-53.42,23.96-53.42,53.41-53.42M558.07,1120.46c-31.71,0-57.41,25.71-57.41,57.42s25.71,57.42,57.41,57.42,57.41-25.71,57.41-57.42-25.71-57.42-57.41-57.42h0Z"/>
    </g>
    <g>
      <circle class="cls-2" cx="424.87" cy="1177.87" r="55.41" transform="translate(-418.41 252.25) rotate(-22.5)"/>
      <path class="cls-4" d="M424.87,1124.46c29.45,0,53.42,23.96,53.42,53.42s-23.96,53.42-53.42,53.42-53.41-23.96-53.41-53.42,23.96-53.42,53.41-53.42M424.87,1120.46c-31.71,0-57.41,25.71-57.41,57.42s25.71,57.42,57.41,57.42,57.42-25.71,57.42-57.42-25.71-57.42-57.42-57.42h0Z"/>
    </g>
    <g>
      <path class="cls-2" d="M482.29,1348.12c-30.56,0-55.41-24.86-55.41-55.41s24.86-55.42,55.41-55.42,55.42,24.86,55.42,55.42-24.86,55.41-55.42,55.41Z"/>
      <path class="cls-4" d="M482.29,1239.29c29.45,0,53.41,23.96,53.41,53.41s-23.96,53.42-53.41,53.42-53.42-23.96-53.42-53.42,23.96-53.41,53.42-53.41M482.29,1235.29c-31.71,0-57.42,25.71-57.42,57.41s25.71,57.42,57.42,57.42,57.41-25.71,57.41-57.42-25.71-57.41-57.41-57.41h0Z"/>
    </g>
    <g>
      <circle class="cls-2" cx="646.49" cy="1063.04" r="55.42"/>
      <path class="cls-4" d="M646.49,1009.63c29.45,0,53.41,23.96,53.41,53.41s-23.96,53.42-53.41,53.42-53.42-23.96-53.42-53.42,23.96-53.41,53.42-53.41M646.49,1005.63c-31.71,0-57.42,25.71-57.42,57.41s25.71,57.42,57.42,57.42,57.41-25.71,57.41-57.42-25.71-57.41-57.41-57.41h0Z"/>
    </g>
    <g>
      <circle class="cls-2" cx="691.28" cy="1198.54" r="55.42"/>
      <path class="cls-4" d="M691.28,1145.13c29.45,0,53.41,23.96,53.41,53.42s-23.96,53.41-53.41,53.41-53.42-23.96-53.42-53.41,23.96-53.42,53.42-53.42M691.28,1141.13c-31.71,0-57.42,25.71-57.42,57.42s25.71,57.41,57.42,57.41,57.41-25.71,57.41-57.41-25.71-57.42-57.41-57.42h0Z"/>
    </g>
    <g>
      <circle class="cls-2" cx="615.49" cy="1313.37" r="55.42"/>
      <path class="cls-4" d="M615.49,1259.96c29.45,0,53.42,23.96,53.42,53.42s-23.96,53.42-53.42,53.42-53.41-23.96-53.41-53.42,23.96-53.42,53.41-53.42M615.49,1255.96c-31.71,0-57.41,25.71-57.41,57.42s25.71,57.42,57.41,57.42,57.42-25.71,57.42-57.42-25.71-57.42-57.42-57.42h0Z"/>
    </g>
    <g>
      <circle class="cls-2" cx="172.24" cy="890.8" r="55.42" transform="translate(-734.64 918.13) rotate(-80.78)"/>
      <path class="cls-4" d="M172.25,837.38c29.45,0,53.42,23.96,53.42,53.42s-23.96,53.41-53.42,53.41-53.42-23.96-53.42-53.41,23.96-53.42,53.42-53.42M172.25,833.38c-31.71,0-57.42,25.71-57.42,57.42s25.71,57.41,57.42,57.41,57.42-25.71,57.42-57.41-25.71-57.42-57.42-57.42h0Z"/>
    </g>
    <g>
      <circle class="cls-2" cx="229.66" cy="1021.7" r="55.42"/>
      <path class="cls-4" d="M229.66,968.29c29.45,0,53.41,23.96,53.41,53.41s-23.96,53.42-53.41,53.42-53.42-23.96-53.42-53.42,23.96-53.41,53.42-53.41M229.66,964.29c-31.71,0-57.42,25.71-57.42,57.41s25.71,57.42,57.42,57.42,57.41-25.71,57.41-57.42-25.71-57.41-57.41-57.41h0Z"/>
    </g>
    <g>
      <circle class="cls-2" cx="96.46" cy="1021.7" r="55.42"/>
      <path class="cls-4" d="M96.46,968.29c29.45,0,53.42,23.96,53.42,53.41s-23.96,53.42-53.42,53.42-53.41-23.96-53.41-53.42,23.96-53.41,53.41-53.41M96.46,964.29c-31.71,0-57.41,25.71-57.41,57.41s25.71,57.42,57.41,57.42,57.42-25.71,57.42-57.42-25.71-57.41-57.42-57.41h0Z"/>
    </g>
    <g>
      <circle class="cls-2" cx="153.87" cy="1136.53" r="55.42"/>
      <path class="cls-4" d="M153.87,1083.12c29.45,0,53.42,23.96,53.42,53.41s-23.96,53.42-53.42,53.42-53.41-23.96-53.41-53.42,23.96-53.41,53.41-53.41M153.87,1079.12c-31.71,0-57.41,25.71-57.41,57.41s25.71,57.42,57.41,57.42,57.42-25.71,57.42-57.42-25.71-57.41-57.42-57.41h0Z"/>
    </g>
    <g>
      <circle class="cls-2" cx="318.08" cy="906.87" r="55.42"/>
      <path class="cls-4" d="M318.08,853.46c29.45,0,53.41,23.96,53.41,53.41s-23.96,53.42-53.41,53.42-53.42-23.96-53.42-53.42,23.96-53.41,53.42-53.41M318.08,849.46c-31.71,0-57.42,25.71-57.42,57.41s25.71,57.42,57.42,57.42,57.41-25.71,57.41-57.42-25.71-57.41-57.41-57.41h0Z"/>
    </g>
    <g>
      <circle class="cls-2" cx="362.86" cy="1042.37" r="55.42"/>
      <path class="cls-4" d="M362.86,988.96c29.45,0,53.41,23.96,53.41,53.42s-23.96,53.41-53.41,53.41-53.42-23.96-53.42-53.41,23.96-53.42,53.42-53.42M362.86,984.96c-31.71,0-57.42,25.71-57.42,57.42s25.71,57.41,57.42,57.41,57.41-25.71,57.41-57.41-25.71-57.42-57.41-57.42h0Z"/>
    </g>
    <g>
      <circle class="cls-2" cx="287.07" cy="1157.2" r="55.42"/>
      <path class="cls-4" d="M287.07,1103.79c29.45,0,53.42,23.96,53.42,53.42s-23.96,53.42-53.42,53.42-53.41-23.96-53.41-53.42,23.96-53.42,53.41-53.42M287.07,1099.79c-31.71,0-57.41,25.71-57.41,57.42s25.71,57.42,57.41,57.42,57.42-25.71,57.42-57.42-25.71-57.42-57.42-57.42h0Z"/>
    </g>
    <g>
      <path class="cls-2" d="M826.78,1289.55c-30.56,0-55.42-24.86-55.42-55.42s24.86-55.42,55.42-55.42,55.41,24.86,55.41,55.42-24.86,55.42-55.41,55.42Z"/>
      <path class="cls-4" d="M826.78,1180.72c29.45,0,53.42,23.96,53.42,53.42s-23.96,53.41-53.42,53.41-53.41-23.96-53.41-53.41,23.96-53.42,53.41-53.42M826.78,1176.72c-31.71,0-57.41,25.71-57.41,57.42s25.71,57.41,57.41,57.41,57.42-25.71,57.42-57.41-25.71-57.42-57.42-57.42h0Z"/>
    </g>
    <g>
      <path class="cls-2" d="M884.19,1420.46c-30.56,0-55.41-24.86-55.41-55.42s24.86-55.42,55.41-55.42,55.42,24.86,55.42,55.42-24.86,55.42-55.42,55.42Z"/>
      <path class="cls-4" d="M884.19,1311.63c29.45,0,53.41,23.96,53.41,53.41s-23.96,53.42-53.41,53.42-53.42-23.96-53.42-53.42,23.96-53.41,53.42-53.41M884.19,1307.63c-31.71,0-57.42,25.71-57.42,57.41s25.71,57.42,57.42,57.42,57.41-25.71,57.41-57.42-25.71-57.41-57.41-57.41h0Z"/>
    </g>
    <g>
      <circle class="cls-2" cx="750.99" cy="1365.04" r="55.42"/>
      <path class="cls-4" d="M750.99,1311.63c29.45,0,53.41,23.96,53.41,53.41s-23.96,53.42-53.41,53.42-53.42-23.96-53.42-53.42,23.96-53.41,53.42-53.41M750.99,1307.63c-31.71,0-57.42,25.71-57.42,57.41s25.71,57.42,57.42,57.42,57.41-25.71,57.41-57.42-25.71-57.41-57.41-57.41h0Z"/>
    </g>
    <g>
      <circle class="cls-2" cx="808.4" cy="1479.88" r="55.42"/>
      <path class="cls-4" d="M808.4,1426.46c29.45,0,53.41,23.96,53.41,53.42s-23.96,53.41-53.41,53.41-53.41-23.96-53.41-53.41,23.96-53.42,53.41-53.42M808.4,1422.46c-31.71,0-57.41,25.71-57.41,57.42s25.71,57.41,57.41,57.41,57.41-25.71,57.41-57.41-25.71-57.42-57.41-57.42h0Z"/>
    </g>
    <g>
      <circle class="cls-2" cx="972.61" cy="1250.21" r="55.42"/>
      <path class="cls-4" d="M972.61,1196.8c29.45,0,53.42,23.96,53.42,53.42s-23.96,53.42-53.42,53.42-53.42-23.96-53.42-53.42,23.96-53.42,53.42-53.42M972.61,1192.8c-31.71,0-57.42,25.71-57.42,57.42s25.71,57.42,57.42,57.42,57.42-25.71,57.42-57.42-25.71-57.42-57.42-57.42h0Z"/>
    </g>
    <g>
      <circle class="cls-2" cx="1017.39" cy="1385.71" r="55.42"/>
      <path class="cls-4" d="M1017.39,1332.3c29.45,0,53.42,23.96,53.42,53.42s-23.96,53.42-53.42,53.42-53.42-23.96-53.42-53.42,23.96-53.42,53.42-53.42M1017.39,1328.3c-31.71,0-57.42,25.71-57.42,57.42s25.71,57.42,57.42,57.42,57.42-25.71,57.42-57.42-25.71-57.42-57.42-57.42h0Z"/>
    </g>
    <g>
      <circle class="cls-2" cx="941.61" cy="1500.54" r="55.42"/>
      <path class="cls-4" d="M941.61,1447.13c29.45,0,53.42,23.96,53.42,53.41s-23.96,53.42-53.42,53.42-53.41-23.96-53.41-53.42,23.96-53.41,53.41-53.41M941.61,1443.13c-31.71,0-57.41,25.71-57.41,57.41s25.71,57.42,57.41,57.42,57.42-25.71,57.42-57.42-25.71-57.41-57.42-57.41h0Z"/>
    </g>
    <g>
      <circle class="cls-2" cx="1163.23" cy="1383.42" r="55.42"/>
      <path class="cls-4" d="M1163.23,1330c29.45,0,53.42,23.96,53.42,53.41s-23.96,53.42-53.42,53.42-53.42-23.96-53.42-53.42,23.96-53.41,53.42-53.41M1163.23,1326c-31.71,0-57.42,25.71-57.42,57.41s25.71,57.42,57.42,57.42,57.42-25.71,57.42-57.42-25.71-57.41-57.42-57.41h0Z"/>
    </g>
    <g>
      <circle class="cls-2" cx="1220.64" cy="1514.32" r="55.42"/>
      <path class="cls-4" d="M1220.64,1460.91c29.45,0,53.41,23.96,53.41,53.42s-23.96,53.42-53.41,53.42-53.42-23.96-53.42-53.42,23.96-53.42,53.42-53.42M1220.64,1456.91c-31.71,0-57.42,25.71-57.42,57.42s25.71,57.42,57.42,57.42,57.41-25.71,57.41-57.42-25.71-57.42-57.41-57.42h0Z"/>
    </g>
    <g>
      <circle class="cls-2" cx="1087.44" cy="1514.32" r="55.42"/>
      <path class="cls-4" d="M1087.44,1460.91c29.45,0,53.42,23.96,53.42,53.42s-23.96,53.42-53.42,53.42-53.41-23.96-53.41-53.42,23.96-53.42,53.41-53.42M1087.44,1456.91c-31.71,0-57.41,25.71-57.41,57.42s25.71,57.42,57.41,57.42,57.42-25.71,57.42-57.42-25.71-57.42-57.42-57.42h0Z"/>
    </g>
    <g>
      <path class="cls-2" d="M1144.86,1684.57c-30.56,0-55.42-24.86-55.42-55.42s24.86-55.42,55.42-55.42,55.41,24.86,55.41,55.42-24.86,55.42-55.41,55.42Z"/>
      <path class="cls-4" d="M1144.86,1575.74c29.45,0,53.42,23.96,53.42,53.41s-23.96,53.42-53.42,53.42-53.42-23.96-53.42-53.42,23.96-53.41,53.42-53.41M1144.86,1571.74c-31.71,0-57.42,25.71-57.42,57.41s25.71,57.42,57.42,57.42,57.42-25.71,57.42-57.42-25.71-57.41-57.42-57.41h0Z"/>
    </g>
    <g>
      <circle class="cls-2" cx="1309.06" cy="1399.49" r="55.42"/>
      <path class="cls-4" d="M1309.06,1346.08c29.45,0,53.42,23.96,53.42,53.41s-23.96,53.42-53.42,53.42-53.42-23.96-53.42-53.42,23.96-53.41,53.42-53.41M1309.06,1342.08c-31.71,0-57.42,25.71-57.42,57.41s25.71,57.42,57.42,57.42,57.42-25.71,57.42-57.42-25.71-57.41-57.42-57.41h0Z"/>
    </g>
    <g>
      <circle class="cls-2" cx="1353.85" cy="1534.99" r="55.42"/>
      <path class="cls-4" d="M1353.85,1481.58c29.45,0,53.42,23.96,53.42,53.42s-23.96,53.41-53.42,53.41-53.42-23.96-53.42-53.41,23.96-53.42,53.42-53.42M1353.85,1477.58c-31.71,0-57.42,25.71-57.42,57.42s25.71,57.41,57.42,57.41,57.42-25.71,57.42-57.41-25.71-57.42-57.42-57.42h0Z"/>
    </g>
    <g>
      <circle class="cls-2" cx="1278.06" cy="1649.82" r="55.42"/>
      <path class="cls-4" d="M1278.06,1596.41c29.45,0,53.42,23.96,53.42,53.42s-23.96,53.42-53.42,53.42-53.41-23.96-53.41-53.42,23.96-53.42,53.41-53.42M1278.06,1592.41c-31.71,0-57.41,25.71-57.41,57.42s25.71,57.42,57.41,57.42,57.42-25.71,57.42-57.42-25.71-57.42-57.42-57.42h0Z"/>
    </g>
    <g>
      <circle class="cls-2" cx="1467.53" cy="773.67" r="55.42"/>
      <path class="cls-4" d="M1467.53,720.26c29.45,0,53.41,23.96,53.41,53.42s-23.96,53.41-53.41,53.41-53.42-23.96-53.42-53.41,23.96-53.42,53.42-53.42M1467.53,716.26c-31.71,0-57.42,25.71-57.42,57.42s25.71,57.41,57.42,57.41,57.41-25.71,57.41-57.41-25.71-57.42-57.41-57.42h0Z"/>
    </g>
    <g>
      <circle class="cls-2" cx="1524.94" cy="904.58" r="55.42"/>
      <path class="cls-4" d="M1524.94,851.16c29.45,0,53.42,23.96,53.42,53.42s-23.96,53.41-53.42,53.41-53.41-23.96-53.41-53.41,23.96-53.42,53.41-53.42M1524.94,847.16c-31.71,0-57.41,25.71-57.41,57.42s25.71,57.41,57.41,57.41,57.42-25.71,57.42-57.41-25.71-57.42-57.42-57.42h0Z"/>
    </g>
    <g>
      <circle class="cls-2" cx="1391.74" cy="904.58" r="55.42"/>
      <path class="cls-4" d="M1391.74,851.16c29.45,0,53.42,23.96,53.42,53.42s-23.96,53.41-53.42,53.41-53.42-23.96-53.42-53.41,23.96-53.42,53.42-53.42M1391.74,847.16c-31.71,0-57.42,25.71-57.42,57.42s25.71,57.41,57.42,57.41,57.42-25.71,57.42-57.41-25.71-57.42-57.42-57.42h0Z"/>
    </g>
    <g>
      <circle class="cls-2" cx="1449.15" cy="1019.41" r="55.42"/>
      <path class="cls-4" d="M1449.15,965.99c29.45,0,53.41,23.96,53.41,53.41s-23.96,53.42-53.41,53.42-53.42-23.96-53.42-53.42,23.96-53.41,53.42-53.41M1449.15,961.99c-31.71,0-57.42,25.71-57.42,57.41s25.71,57.42,57.42,57.42,57.41-25.71,57.41-57.42-25.71-57.41-57.41-57.41h0Z"/>
    </g>
    <g>
      <circle class="cls-2" cx="1613.36" cy="789.75" r="55.42"/>
      <path class="cls-4" d="M1613.36,736.33c29.45,0,53.41,23.96,53.41,53.41s-23.96,53.41-53.41,53.41-53.42-23.96-53.42-53.41,23.96-53.41,53.42-53.41M1613.36,732.33c-31.71,0-57.42,25.71-57.42,57.41s25.71,57.41,57.42,57.41,57.41-25.71,57.41-57.41-25.71-57.41-57.41-57.41h0Z"/>
    </g>
    <g>
      <circle class="cls-2" cx="1658.15" cy="925.25" r="55.42"/>
      <path class="cls-4" d="M1658.15,871.83c29.45,0,53.41,23.96,53.41,53.41s-23.96,53.42-53.41,53.42-53.42-23.96-53.42-53.42,23.96-53.41,53.42-53.41M1658.15,867.83c-31.71,0-57.42,25.71-57.42,57.41s25.71,57.42,57.42,57.42,57.41-25.71,57.41-57.42-25.71-57.41-57.41-57.41h0Z"/>
    </g>
    <g>
      <path class="cls-2" d="M1582.36,1095.49c-30.56,0-55.42-24.86-55.42-55.42s24.86-55.41,55.42-55.41,55.42,24.86,55.42,55.41-24.86,55.42-55.42,55.42Z"/>
      <path class="cls-4" d="M1582.36,986.66c29.45,0,53.42,23.96,53.42,53.41s-23.96,53.42-53.42,53.42-53.42-23.96-53.42-53.42,23.96-53.41,53.42-53.41M1582.36,982.66c-31.71,0-57.42,25.71-57.42,57.41s25.71,57.42,57.42,57.42,57.42-25.71,57.42-57.42-25.71-57.41-57.42-57.41h0Z"/>
    </g>
    <g>
      <circle class="cls-2" cx="1449.15" cy="380.95" r="55.42"/>
      <path class="cls-4" d="M1449.15,327.54c29.45,0,53.41,23.96,53.41,53.42s-23.96,53.41-53.41,53.41-53.42-23.96-53.42-53.41,23.96-53.42,53.42-53.42M1449.15,323.54c-31.71,0-57.42,25.71-57.42,57.42s25.71,57.41,57.42,57.41,57.41-25.71,57.41-57.41-25.71-57.42-57.41-57.42h0Z"/>
    </g>
    <g>
      <circle class="cls-2" cx="1506.57" cy="511.86" r="55.41"/>
      <path class="cls-4" d="M1506.57,458.44c29.45,0,53.42,23.96,53.42,53.42s-23.96,53.41-53.42,53.41-53.41-23.96-53.41-53.41,23.96-53.42,53.41-53.42M1506.57,454.44c-31.71,0-57.41,25.71-57.41,57.42s25.71,57.41,57.41,57.41,57.42-25.71,57.42-57.41-25.71-57.42-57.42-57.42h0Z"/>
    </g>
    <g>
      <path class="cls-2" d="M1373.37,567.27c-30.56,0-55.41-24.86-55.41-55.41s24.86-55.42,55.41-55.42,55.42,24.86,55.42,55.42-24.86,55.41-55.42,55.41Z"/>
      <path class="cls-4" d="M1373.37,458.44c29.45,0,53.42,23.96,53.42,53.42s-23.96,53.41-53.42,53.41-53.42-23.96-53.42-53.41,23.96-53.42,53.42-53.42M1373.37,454.44c-31.71,0-57.42,25.71-57.42,57.42s25.71,57.41,57.42,57.41,57.42-25.71,57.42-57.41-25.71-57.42-57.42-57.42h0Z"/>
    </g>
    <g>
      <circle class="cls-2" cx="1430.78" cy="626.69" r="55.42"/>
      <path class="cls-4" d="M1430.78,573.27c29.45,0,53.41,23.96,53.41,53.42s-23.96,53.41-53.41,53.41-53.42-23.96-53.42-53.41,23.96-53.42,53.42-53.42M1430.78,569.27c-31.71,0-57.42,25.71-57.42,57.42s25.71,57.41,57.42,57.41,57.41-25.71,57.41-57.41-25.71-57.42-57.41-57.42h0Z"/>
    </g>
    <g>
      <circle class="cls-2" cx="1594.99" cy="397.03" r="55.42"/>
      <path class="cls-4" d="M1594.99,343.61c29.45,0,53.41,23.96,53.41,53.42s-23.96,53.41-53.41,53.41-53.42-23.96-53.42-53.41,23.96-53.42,53.42-53.42M1594.99,339.61c-31.71,0-57.42,25.71-57.42,57.42s25.71,57.41,57.42,57.41,57.41-25.71,57.41-57.41-25.71-57.42-57.41-57.42h0Z"/>
    </g>
    <g>
      <circle class="cls-2" cx="1639.77" cy="532.53" r="55.41"/>
      <path class="cls-4" d="M1639.77,479.11c29.45,0,53.41,23.96,53.41,53.42s-23.96,53.41-53.41,53.41-53.42-23.96-53.42-53.41,23.96-53.42,53.42-53.42M1639.77,475.11c-31.71,0-57.42,25.71-57.42,57.42s25.71,57.41,57.42,57.41,57.41-25.71,57.41-57.41-25.71-57.42-57.41-57.42h0Z"/>
    </g>
    <g>
      <circle class="cls-2" cx="1563.98" cy="647.36" r="55.42"/>
      <path class="cls-4" d="M1563.98,593.94c29.45,0,53.42,23.96,53.42,53.41s-23.96,53.42-53.42,53.42-53.42-23.96-53.42-53.42,23.96-53.41,53.42-53.41M1563.98,589.94c-31.71,0-57.42,25.71-57.42,57.41s25.71,57.42,57.42,57.42,57.42-25.71,57.42-57.42-25.71-57.41-57.42-57.41h0Z"/>
    </g>
    <g>
      <circle class="cls-2" cx="1113.85" cy="230.52" r="55.41"/>
      <path class="cls-4" d="M1113.85,177.11c29.45,0,53.42,23.96,53.42,53.41s-23.96,53.42-53.42,53.42-53.41-23.96-53.41-53.42,23.96-53.41,53.41-53.41M1113.85,173.11c-31.71,0-57.41,25.71-57.41,57.41s25.71,57.42,57.41,57.42,57.42-25.71,57.42-57.42-25.71-57.41-57.42-57.41h0Z"/>
    </g>
    <g>
      <circle class="cls-2" cx="1171.27" cy="361.43" r="55.42"/>
      <path class="cls-4" d="M1171.27,308.02c29.45,0,53.42,23.96,53.42,53.41s-23.96,53.42-53.42,53.42-53.42-23.96-53.42-53.42,23.96-53.41,53.42-53.41M1171.27,304.02c-31.71,0-57.42,25.71-57.42,57.41s25.71,57.42,57.42,57.42,57.42-25.71,57.42-57.42-25.71-57.41-57.42-57.41h0Z"/>
    </g>
    <g>
      <circle class="cls-2" cx="1038.06" cy="361.43" r="55.42"/>
      <path class="cls-4" d="M1038.06,308.02c29.45,0,53.41,23.96,53.41,53.41s-23.96,53.42-53.41,53.42-53.42-23.96-53.42-53.42,23.96-53.41,53.42-53.41M1038.06,304.02c-31.71,0-57.42,25.71-57.42,57.41s25.71,57.42,57.42,57.42,57.41-25.71,57.41-57.42-25.71-57.41-57.41-57.41h0Z"/>
    </g>
    <g>
      <circle class="cls-2" cx="1095.48" cy="476.26" r="55.42"/>
      <path class="cls-4" d="M1095.48,422.85c29.45,0,53.42,23.96,53.42,53.42s-23.96,53.41-53.42,53.41-53.41-23.96-53.41-53.41,23.96-53.42,53.41-53.42M1095.48,418.85c-31.71,0-57.41,25.71-57.41,57.42s25.71,57.41,57.41,57.41,57.42-25.71,57.42-57.41-25.71-57.42-57.42-57.42h0Z"/>
    </g>
    <g>
      <circle class="cls-2" cx="1259.68" cy="246.6" r="55.41"/>
      <path class="cls-4" d="M1259.69,193.19c29.45,0,53.42,23.96,53.42,53.41s-23.96,53.42-53.42,53.42-53.41-23.96-53.41-53.42,23.96-53.41,53.41-53.41M1259.69,189.19c-31.71,0-57.41,25.71-57.41,57.41s25.71,57.42,57.41,57.42,57.42-25.71,57.42-57.42-25.71-57.41-57.42-57.41h0Z"/>
    </g>
    <g>
      <circle class="cls-2" cx="1304.47" cy="382.1" r="55.42"/>
      <path class="cls-4" d="M1304.47,328.68c29.45,0,53.41,23.96,53.41,53.42s-23.96,53.42-53.41,53.42-53.42-23.96-53.42-53.42,23.96-53.42,53.42-53.42M1304.47,324.68c-31.71,0-57.42,25.71-57.42,57.42s25.71,57.42,57.42,57.42,57.41-25.71,57.41-57.42-25.71-57.42-57.41-57.42h0Z"/>
    </g>
    <g>
      <circle class="cls-2" cx="1228.68" cy="496.93" r="55.42"/>
      <path class="cls-4" d="M1228.68,443.51c29.45,0,53.42,23.96,53.42,53.41s-23.96,53.42-53.42,53.42-53.42-23.96-53.42-53.42,23.96-53.41,53.42-53.41M1228.68,439.51c-31.71,0-57.42,25.71-57.42,57.41s25.71,57.42,57.42,57.42,57.42-25.71,57.42-57.42-25.71-57.41-57.42-57.41h0Z"/>
    </g>
    <g>
      <circle class="cls-2" cx="785.44" cy="67.47" r="55.42" transform="translate(-2.36 96.47) rotate(-7.02)"/>
      <path class="cls-4" d="M785.44,14.05c29.45,0,53.41,23.96,53.41,53.42s-23.96,53.41-53.41,53.41-53.41-23.96-53.41-53.41,23.96-53.42,53.41-53.42M785.44,10.05c-31.71,0-57.41,25.71-57.41,57.42s25.71,57.41,57.41,57.41,57.41-25.71,57.41-57.41-25.71-57.42-57.41-57.42h0Z"/>
    </g>
    <g>
      <path class="cls-2" d="M842.85,253.79c-30.56,0-55.42-24.86-55.42-55.42s24.86-55.42,55.42-55.42,55.41,24.86,55.41,55.42-24.86,55.42-55.41,55.42Z"/>
      <path class="cls-4" d="M842.85,144.96c29.45,0,53.42,23.96,53.42,53.41s-23.96,53.42-53.42,53.42-53.41-23.96-53.41-53.42,23.96-53.41,53.41-53.41M842.85,140.96c-31.71,0-57.41,25.71-57.41,57.41s25.71,57.42,57.41,57.42,57.42-25.71,57.42-57.42-25.71-57.41-57.42-57.41h0Z"/>
    </g>
    <g>
      <circle class="cls-2" cx="709.65" cy="198.37" r="55.42"/>
      <path class="cls-4" d="M709.65,144.96c29.45,0,53.41,23.96,53.41,53.41s-23.96,53.42-53.41,53.42-53.42-23.96-53.42-53.42,23.96-53.41,53.42-53.41M709.65,140.96c-31.71,0-57.42,25.71-57.42,57.41s25.71,57.42,57.42,57.42,57.41-25.71,57.41-57.42-25.71-57.41-57.41-57.41h0Z"/>
    </g>
    <g>
      <circle class="cls-2" cx="767.06" cy="313.2" r="55.42"/>
      <path class="cls-4" d="M767.06,259.79c29.45,0,53.42,23.96,53.42,53.41s-23.96,53.42-53.42,53.42-53.41-23.96-53.41-53.42,23.96-53.41,53.41-53.41M767.06,255.79c-31.71,0-57.41,25.71-57.41,57.41s25.71,57.42,57.41,57.42,57.42-25.71,57.42-57.42-25.71-57.41-57.42-57.41h0Z"/>
    </g>
    <g>
      <circle class="cls-2" cx="931.27" cy="83.54" r="55.41"/>
      <path class="cls-4" d="M931.27,30.13c29.45,0,53.41,23.96,53.41,53.42s-23.96,53.41-53.41,53.41-53.42-23.96-53.42-53.41,23.96-53.42,53.42-53.42M931.27,26.13c-31.71,0-57.42,25.71-57.42,57.42s25.71,57.41,57.42,57.41,57.41-25.71,57.41-57.41-25.71-57.42-57.41-57.42h0Z"/>
    </g>
    <g>
      <circle class="cls-2" cx="976.05" cy="219.04" r="55.42"/>
      <path class="cls-4" d="M976.06,165.63c29.45,0,53.41,23.96,53.41,53.41s-23.96,53.42-53.41,53.42-53.42-23.96-53.42-53.42,23.96-53.41,53.42-53.41M976.06,161.63c-31.71,0-57.42,25.71-57.42,57.41s25.71,57.42,57.42,57.42,57.41-25.71,57.41-57.42-25.71-57.41-57.41-57.41h0Z"/>
    </g>
    <g>
      <path class="cls-2" d="M900.27,389.29c-30.56,0-55.41-24.86-55.41-55.42s24.86-55.42,55.41-55.42,55.42,24.86,55.42,55.42-24.86,55.42-55.42,55.42Z"/>
      <path class="cls-4" d="M900.27,280.46c29.45,0,53.42,23.96,53.42,53.41s-23.96,53.42-53.42,53.42-53.42-23.96-53.42-53.42,23.96-53.41,53.42-53.41M900.27,276.46c-31.71,0-57.42,25.71-57.42,57.41s25.71,57.42,57.42,57.42,57.42-25.71,57.42-57.42-25.71-57.41-57.42-57.41h0Z"/>
    </g>
    <g>
      <circle class="cls-2" cx="500.66" cy="1448.87" r="55.42"/>
      <path class="cls-4" d="M500.66,1395.46c29.45,0,53.41,23.96,53.41,53.42s-23.96,53.42-53.41,53.42-53.42-23.96-53.42-53.42,23.96-53.42,53.42-53.42M500.66,1391.46c-31.71,0-57.42,25.71-57.42,57.42s25.71,57.42,57.42,57.42,57.41-25.71,57.41-57.42-25.71-57.42-57.41-57.42h0Z"/>
    </g>
    <g>
      <circle class="cls-2" cx="558.07" cy="1579.78" r="55.42"/>
      <path class="cls-4" d="M558.07,1526.36c29.45,0,53.41,23.96,53.41,53.42s-23.96,53.41-53.41,53.41-53.41-23.96-53.41-53.41,23.96-53.42,53.41-53.42M558.07,1522.36c-31.71,0-57.41,25.71-57.41,57.42s25.71,57.41,57.41,57.41,57.41-25.71,57.41-57.41-25.71-57.42-57.41-57.42h0Z"/>
    </g>
    <g>
      <circle class="cls-2" cx="424.87" cy="1579.78" r="55.41" transform="translate(-572.21 282.84) rotate(-22.5)"/>
      <path class="cls-4" d="M424.87,1526.36c29.45,0,53.42,23.96,53.42,53.42s-23.96,53.41-53.42,53.41-53.41-23.96-53.41-53.41,23.96-53.42,53.41-53.42M424.87,1522.36c-31.71,0-57.41,25.71-57.41,57.42s25.71,57.41,57.41,57.41,57.42-25.71,57.42-57.41-25.71-57.42-57.42-57.42h0Z"/>
    </g>
    <g>
      <circle class="cls-2" cx="482.29" cy="1694.61" r="55.42" transform="translate(-1267.69 1899.22) rotate(-80.78)"/>
      <path class="cls-4" d="M482.29,1641.19c29.45,0,53.41,23.96,53.41,53.42s-23.96,53.42-53.41,53.42-53.42-23.96-53.42-53.42,23.96-53.42,53.42-53.42M482.29,1637.19c-31.71,0-57.42,25.71-57.42,57.42s25.71,57.42,57.42,57.42,57.41-25.71,57.41-57.42-25.71-57.42-57.41-57.42h0Z"/>
    </g>
    <g>
      <circle class="cls-2" cx="646.49" cy="1464.95" r="55.42"/>
      <path class="cls-4" d="M646.49,1411.53c29.45,0,53.41,23.96,53.41,53.41s-23.96,53.42-53.41,53.42-53.42-23.96-53.42-53.42,23.96-53.41,53.42-53.41M646.49,1407.53c-31.71,0-57.42,25.71-57.42,57.41s25.71,57.42,57.42,57.42,57.41-25.71,57.41-57.42-25.71-57.41-57.41-57.41h0Z"/>
    </g>
    <g>
      <circle class="cls-2" cx="691.28" cy="1600.45" r="55.42"/>
      <path class="cls-4" d="M691.28,1547.03c29.45,0,53.41,23.96,53.41,53.41s-23.96,53.42-53.41,53.42-53.42-23.96-53.42-53.42,23.96-53.41,53.42-53.41M691.28,1543.03c-31.71,0-57.42,25.71-57.42,57.41s25.71,57.42,57.42,57.42,57.41-25.71,57.41-57.42-25.71-57.41-57.41-57.41h0Z"/>
    </g>
    <g>
      <circle class="cls-2" cx="615.49" cy="1715.28" r="55.42"/>
      <path class="cls-4" d="M615.49,1661.86c29.45,0,53.42,23.96,53.42,53.42s-23.96,53.41-53.42,53.41-53.41-23.96-53.41-53.41,23.96-53.42,53.41-53.42M615.49,1657.86c-31.71,0-57.41,25.71-57.41,57.42s25.71,57.41,57.41,57.41,57.42-25.71,57.42-57.41-25.71-57.42-57.42-57.42h0Z"/>
    </g>
    <g>
      <circle class="cls-2" cx="172.24" cy="1274.33" r="55.42" transform="translate(-1113.22 1240.22) rotate(-80.78)"/>
      <path class="cls-4" d="M172.25,1220.91c29.45,0,53.42,23.96,53.42,53.41s-23.96,53.42-53.42,53.42-53.42-23.96-53.42-53.42,23.96-53.41,53.42-53.41M172.25,1216.91c-31.71,0-57.42,25.71-57.42,57.41s25.71,57.42,57.42,57.42,57.42-25.71,57.42-57.42-25.71-57.41-57.42-57.41h0Z"/>
    </g>
    <g>
      <circle class="cls-2" cx="229.66" cy="1405.24" r="55.42"/>
      <path class="cls-4" d="M229.66,1351.82c29.45,0,53.41,23.96,53.41,53.42s-23.96,53.42-53.41,53.42-53.42-23.96-53.42-53.42,23.96-53.42,53.42-53.42M229.66,1347.82c-31.71,0-57.42,25.71-57.42,57.42s25.71,57.42,57.42,57.42,57.41-25.71,57.41-57.42-25.71-57.42-57.41-57.42h0Z"/>
    </g>
    <g>
      <circle class="cls-2" cx="96.46" cy="1405.24" r="55.42"/>
      <path class="cls-4" d="M96.46,1351.82c29.45,0,53.42,23.96,53.42,53.42s-23.96,53.42-53.42,53.42-53.41-23.96-53.41-53.42,23.96-53.42,53.41-53.42M96.46,1347.82c-31.71,0-57.41,25.71-57.41,57.42s25.71,57.42,57.41,57.42,57.42-25.71,57.42-57.42-25.71-57.42-57.42-57.42h0Z"/>
    </g>
    <g>
      <circle class="cls-2" cx="153.87" cy="1520.07" r="55.42"/>
      <path class="cls-4" d="M153.87,1466.65c29.45,0,53.42,23.96,53.42,53.41s-23.96,53.42-53.42,53.42-53.41-23.96-53.41-53.42,23.96-53.41,53.41-53.41M153.87,1462.65c-31.71,0-57.41,25.71-57.41,57.41s25.71,57.42,57.41,57.42,57.42-25.71,57.42-57.42-25.71-57.41-57.42-57.41h0Z"/>
    </g>
    <g>
      <circle class="cls-2" cx="318.08" cy="1290.41" r="55.42"/>
      <path class="cls-4" d="M318.08,1236.99c29.45,0,53.41,23.96,53.41,53.41s-23.96,53.42-53.41,53.42-53.42-23.96-53.42-53.42,23.96-53.41,53.42-53.41M318.08,1232.99c-31.71,0-57.42,25.71-57.42,57.41s25.71,57.42,57.42,57.42,57.41-25.71,57.41-57.42-25.71-57.41-57.41-57.41h0Z"/>
    </g>
    <g>
      <circle class="cls-2" cx="362.86" cy="1425.9" r="55.42"/>
      <path class="cls-4" d="M362.86,1372.49c29.45,0,53.41,23.96,53.41,53.42s-23.96,53.41-53.41,53.41-53.42-23.96-53.42-53.41,23.96-53.42,53.42-53.42M362.86,1368.49c-31.71,0-57.42,25.71-57.42,57.42s25.71,57.41,57.42,57.41,57.41-25.71,57.41-57.41-25.71-57.42-57.41-57.42h0Z"/>
    </g>
    <g>
      <circle class="cls-2" cx="287.07" cy="1540.73" r="55.42"/>
      <path class="cls-4" d="M287.07,1487.32c29.45,0,53.42,23.96,53.42,53.42s-23.96,53.42-53.42,53.42-53.41-23.96-53.41-53.42,23.96-53.42,53.41-53.42M287.07,1483.32c-31.71,0-57.41,25.71-57.41,57.42s25.71,57.42,57.41,57.42,57.42-25.71,57.42-57.42-25.71-57.42-57.42-57.42h0Z"/>
    </g>
    <g>
      <circle class="cls-2" cx="172.24" cy="1653.27" r="55.42" transform="translate(-1487.27 1558.46) rotate(-80.78)"/>
      <path class="cls-4" d="M172.25,1599.85c29.45,0,53.42,23.96,53.42,53.42s-23.96,53.41-53.42,53.41-53.42-23.96-53.42-53.41,23.96-53.42,53.42-53.42M172.25,1595.85c-31.71,0-57.42,25.71-57.42,57.42s25.71,57.41,57.42,57.41,57.42-25.71,57.42-57.41-25.71-57.42-57.42-57.42h0Z"/>
    </g>
    <g>
      <circle class="cls-2" cx="229.66" cy="1784.17" r="55.42"/>
      <path class="cls-4" d="M229.66,1730.76c29.45,0,53.41,23.96,53.41,53.41s-23.96,53.42-53.41,53.42-53.42-23.96-53.42-53.42,23.96-53.41,53.42-53.41M229.66,1726.76c-31.71,0-57.42,25.71-57.42,57.41s25.71,57.42,57.42,57.42,57.41-25.71,57.41-57.42-25.71-57.41-57.41-57.41h0Z"/>
    </g>
    <g>
      <circle class="cls-2" cx="96.46" cy="1784.17" r="55.42"/>
      <path class="cls-4" d="M96.46,1730.76c29.45,0,53.42,23.96,53.42,53.41s-23.96,53.42-53.42,53.42-53.41-23.96-53.41-53.42,23.96-53.41,53.41-53.41M96.46,1726.76c-31.71,0-57.41,25.71-57.41,57.41s25.71,57.42,57.41,57.42,57.42-25.71,57.42-57.42-25.71-57.41-57.42-57.41h0Z"/>
    </g>
    <g>
      <circle class="cls-2" cx="318.08" cy="1669.34" r="55.42"/>
      <path class="cls-4" d="M318.08,1615.93c29.45,0,53.41,23.96,53.41,53.42s-23.96,53.42-53.41,53.42-53.42-23.96-53.42-53.42,23.96-53.42,53.42-53.42M318.08,1611.93c-31.71,0-57.42,25.71-57.42,57.42s25.71,57.42,57.42,57.42,57.41-25.71,57.41-57.42-25.71-57.42-57.41-57.42h0Z"/>
    </g>
    <g>
      <circle class="cls-2" cx="362.86" cy="1804.84" r="55.42"/>
      <path class="cls-4" d="M362.86,1751.43c29.45,0,53.41,23.96,53.41,53.42s-23.96,53.42-53.41,53.42-53.42-23.96-53.42-53.42,23.96-53.42,53.42-53.42M362.86,1747.43c-31.71,0-57.42,25.71-57.42,57.42s25.71,57.42,57.42,57.42,57.41-25.71,57.41-57.42-25.71-57.42-57.41-57.42h0Z"/>
    </g>
    <g>
      <circle class="cls-2" cx="1480.16" cy="1174.43" r="55.42"/>
      <path class="cls-4" d="M1480.16,1121.01c29.45,0,53.42,23.96,53.42,53.41s-23.96,53.42-53.42,53.42-53.41-23.96-53.41-53.42,23.96-53.41,53.41-53.41M1480.16,1117.01c-31.71,0-57.41,25.71-57.41,57.41s25.71,57.42,57.41,57.42,57.42-25.71,57.42-57.42-25.71-57.41-57.42-57.41h0Z"/>
    </g>
    <g>
      <circle class="cls-2" cx="1537.57" cy="1305.33" r="55.42"/>
      <path class="cls-4" d="M1537.57,1251.92c29.45,0,53.42,23.96,53.42,53.42s-23.96,53.42-53.42,53.42-53.42-23.96-53.42-53.42,23.96-53.42,53.42-53.42M1537.57,1247.92c-31.71,0-57.42,25.71-57.42,57.42s25.71,57.42,57.42,57.42,57.42-25.71,57.42-57.42-25.71-57.42-57.42-57.42h0Z"/>
    </g>
    <g>
      <circle class="cls-2" cx="1404.37" cy="1305.33" r="55.42"/>
      <path class="cls-4" d="M1404.37,1251.92c29.45,0,53.41,23.96,53.41,53.42s-23.96,53.42-53.41,53.42-53.42-23.96-53.42-53.42,23.96-53.42,53.42-53.42M1404.37,1247.92c-31.71,0-57.42,25.71-57.42,57.42s25.71,57.42,57.42,57.42,57.41-25.71,57.41-57.42-25.71-57.42-57.41-57.42h0Z"/>
    </g>
    <g>
      <circle class="cls-2" cx="1461.79" cy="1420.16" r="55.42"/>
      <path class="cls-4" d="M1461.79,1366.75c29.45,0,53.42,23.96,53.42,53.41s-23.96,53.42-53.42,53.42-53.41-23.96-53.41-53.42,23.96-53.41,53.41-53.41M1461.79,1362.75c-31.71,0-57.41,25.71-57.41,57.41s25.71,57.42,57.41,57.42,57.42-25.71,57.42-57.42-25.71-57.41-57.42-57.41h0Z"/>
    </g>
    <g>
      <path class="cls-2" d="M1625.99,1245.92c-30.56,0-55.42-24.86-55.42-55.42s24.86-55.42,55.42-55.42,55.41,24.86,55.41,55.42-24.86,55.42-55.41,55.42Z"/>
      <path class="cls-4" d="M1625.99,1137.09c29.45,0,53.42,23.96,53.42,53.41s-23.96,53.42-53.42,53.42-53.42-23.96-53.42-53.42,23.96-53.41,53.42-53.41M1625.99,1133.09c-31.71,0-57.42,25.71-57.42,57.41s25.71,57.42,57.42,57.42,57.42-25.71,57.42-57.42-25.71-57.41-57.42-57.41h0Z"/>
    </g>
    <g>
      <circle class="cls-2" cx="1670.78" cy="1326" r="55.42"/>
      <path class="cls-4" d="M1670.78,1272.59c29.45,0,53.42,23.96,53.42,53.42s-23.96,53.41-53.42,53.41-53.41-23.96-53.41-53.41,23.96-53.42,53.41-53.42M1670.78,1268.59c-31.71,0-57.41,25.71-57.41,57.42s25.71,57.41,57.41,57.41,57.42-25.71,57.42-57.41-25.71-57.42-57.42-57.42h0Z"/>
    </g>
    <g>
      <circle class="cls-2" cx="1594.99" cy="1440.83" r="55.42"/>
      <path class="cls-4" d="M1594.99,1387.42c29.45,0,53.41,23.96,53.41,53.42s-23.96,53.42-53.41,53.42-53.42-23.96-53.42-53.42,23.96-53.42,53.42-53.42M1594.99,1383.42c-31.71,0-57.42,25.71-57.42,57.42s25.71,57.42,57.42,57.42,57.41-25.71,57.41-57.42-25.71-57.42-57.41-57.42h0Z"/>
    </g>
    <g>
      <circle class="cls-2" cx="615.49" cy="935.58" r="55.41"/>
      <path class="cls-4" d="M615.49,882.17c29.45,0,53.42,23.96,53.42,53.41s-23.96,53.41-53.42,53.41-53.41-23.96-53.41-53.41,23.96-53.41,53.41-53.41M615.49,878.17c-31.71,0-57.41,25.71-57.41,57.41s25.71,57.41,57.41,57.41,57.42-25.71,57.42-57.41-25.71-57.41-57.42-57.41h0Z"/>
    </g>
  </g>
  <g id="Layer_3" data-name="Layer 3" class="cls-1">
    <path class="cls-3" d="M946.01,0h-445.82l-127.58,273.21v16.07h573.49c106.79,0,160.21,63.89,160.21,191.6v148.5c-51.32-32.13-104.78-48.2-160.37-48.2h-336.77c-320.75,0-481.12,160.58-481.12,481.7v220c0,321.16,160.37,481.7,481.12,481.7h336.77c66.28,0,119.74-16.07,160.37-48.2v111.31h16.03l304.8-143.49V481.2C1427.13,160.41,1266.76,0,946.01,0ZM448.86,1062.95c0-128.32,53.42-192.51,160.33-192.51h336.77c21.94,0,41.63,2.71,59.07,8.12l-554.92,436.62c-.83-10.31-1.25-21.1-1.25-32.41v-219.83ZM1106.3,1282.78c0,128.36-53.46,192.51-160.33,192.51h-336.77c-26.3,0-49.36-3.89-69.19-11.66l564.01-443.78c1.52,13.46,2.28,27.82,2.28,43.09v219.83Z"/>
  </g>
</svg>